<mxfile host="65bd71144e">
    <diagram id="nZd_EU-Kq6F-udtuDI4O" name="Page-1">
        <mxGraphModel dx="1514" dy="576" grid="1" gridSize="10" guides="1" tooltips="1" connect="1" arrows="1" fold="1" page="1" pageScale="1" pageWidth="850" pageHeight="1100" math="0" shadow="0">
            <root>
                <mxCell id="0"/>
                <mxCell id="1" parent="0"/>
                <mxCell id="2" style="edgeStyle=orthogonalEdgeStyle;rounded=1;html=1;strokeColor=#000000;strokeWidth=3;entryX=0.5;entryY=0;entryDx=0;entryDy=0;" edge="1" parent="1" source="4" target="9">
                    <mxGeometry relative="1" as="geometry">
                        <mxPoint x="540.5" y="550" as="targetPoint"/>
                    </mxGeometry>
                </mxCell>
                <mxCell id="3" style="edgeStyle=orthogonalEdgeStyle;rounded=1;html=1;entryX=0.5;entryY=0;entryDx=0;entryDy=0;strokeColor=#000000;strokeWidth=3;" edge="1" parent="1" source="4" target="10">
                    <mxGeometry relative="1" as="geometry">
                        <Array as="points">
                            <mxPoint x="541" y="530"/>
                            <mxPoint x="724" y="530"/>
                        </Array>
                    </mxGeometry>
                </mxCell>
                <mxCell id="4" value="" style="shape=image;verticalLabelPosition=bottom;labelBackgroundColor=default;verticalAlign=top;aspect=fixed;imageAspect=0;image=data:image/png,iVBORw0KGgoAAAANSUhEUgAAAIcAAACECAYAAAC6czikAAAABmJLR0QA/wD/AP+gvaeTAAAL60lEQVR4nO3db0wT9x8H8HcBbVC3EZ0K4s9F0W6gLuiQTUBcwY3KcAGBEdCYzH+gEaOLIn3AGCCKe6KZRiV2D9TMxWg37aK2CU60GEUlCAoxWPWBIpISwYnbKoz+HhAu1PZbjtrrXennlZjYXu/6af3k7nv39voFCCGEEEIIEZHMwXMLAXzn6UKI6DLffCLAwYv+ByBj8eLFwpdDRGc2m9Hc3OxwmaM9xzcATl66dEnQoog0VFdXo6SkBHDQC36eL4d4C2oOwkTNQZioOTxg48aNOHfunNhlDBs1B2FydCormoKCAty8edPmuQULFuDHH38UqSLbmuRyOUJDQ5GdnY0lS5aIVpOnSKo5ACA9PR2bNm0SuwwbAzVZLBacO3cOu3btQlhYGKZPny52aYLymsNKZmYm6urquMdmsxlKpRLd3d24ceMGlEql3Z+6ujqny3Q6HVavXm3zPk+ePEFiYiLa29vtapDL5UhLS4NMJsPDhw951ebIP//8g/379yMrKwspKSlQq9UO309skttzuCI6OhqDL9odO3YMNTU1iIiIQGBgIHNZREQEKisrcffuXcyZMwcA8McffyAqKgqTJ0+2e5+BPYdMJsOHH37ocr27d+/G69evsW/fPrz33ns4evQoioqKUFlZCZnM0XVJcUiuObRaLbRaLfe4rKwMcXFxvNc3GAzQ6/U4cOAAAgMDh1z25ZdfQqfTYc6cOejp6YFer8e2bduYNQUEBGDnzp2YOnWqS5/PbDbDaDTi9OnTmDBhAgAgLy8PKSkpePToEWbMmOHSdoUgueZ4mzHHrVu3UFlZiX379mH8+PG8lqWmpmL9+vXYtGkTamtr4e/vj4ULFzqsqaurC3v37sXRo0cRHR0NP7/hH5Xb2toAABkZGXbLnj17Rs3hCrlcDovFwj3u6uqyWW4ymVBeXo6ysjJMmzaN97IPPvgA4eHh0Ov1MBqNUKlUCAhw/LUEBQVh+/btyMnJwfnz55GSksKrtsGCg4Mhk8lw5swZvPvuu/w+vEi8ZkA6c+ZM6PV6dHd3o729HZWVldyy9vZ2qNVqbN26lRs78Fk2IDU1Fb/++iuamprw1VdfOa1j3LhxyMrKwvHjx9Hb2ztkbW+aNGkSYmNjUVFRgSdPnsBiseDevXsoKipCT08P36/DI7ymOXJzc/HixQtkZGRArVZj0aJF3DKj0YiOjg4UFxfbnZE4WzYgLi4Ofn5+iIyMRGho6JC1LF++HBaLBRcuXBiyNkfUajWmTZuGgoICpKam4qeffoJKpcKoUaNc/HaEQZE9gJ6eHqSnp2PLli1ISEgQuxyPosjeCavVijNnzkAulyM+Pl7sciTFawakQlGpVBg3bhwKCgqYA1Ff5fPfhsFgELsEyfL5wwpho+YgTNQchImagzAxB6TV1dUeLIOIpampibmMeRFMsGqIVNn1AnPP4UtXSH3ZoCukdmjMQZioOQgTNQdhouYgTNQchImagzBRcxAmag7CRM1BmKg5CBM1B2Gi5iBM1ByEiZqDMFFzECZqDsJEzUGYqDkIEzUHYaLmIEzUHISJmoMwUXMQJrqpiQzgf1NTcXGxsKUQSWhqasLp06cdLmM2x+effy5UPURiWM1BYw7CRM1BmKg5CBM1h0Bcmbqrvr4eGzdu5B4XFhbi8uXL7i6NN2oOCTly5AhWrFjBPc7JyYFGo4HVahWlHrf/1OTz58+RmZmJixcv8no9Td3V7/79+2htbcWnn37KPffxxx+jt7cXdXV1iIqKEuy9WSTxO6Q0dVf/77fPnz/f7odyo6KiYDQaRWkOSR9WfGnqrubmZsycOdNuPYVCwZxrXmiS2HO4YqRN3dXR0YGgoCC79YKCgtDR0eHy+74NtzRHRUWF3c9EK5VK7u8rV67EmjVrmOvT1F3SmZ1pMLc0R2FhIQoLCwEMf0AK0NRdM2bMwIQJExzO8NTV1YX3339/2O/pDpI+rPjS1F0REREwmUx2z7e0tCA8PJy5bSFJekDqS1N3LVq0CPX19fjvv/9s1q2rqxNtHhhJN4cvTd2lUCgwZcoU1NbWcuvcuXMH/v7++OSTT4b1vbmLz07jJcWpu+rr63HkyBEcPHgQQP9YTqVSCfrfJ5xN4yXpMYdQpDp117x587jGAPrPAsXkk81BU3fxI+kxh1AMBgO0Wq1NjiEmqSa4PtkcI4EnElzRU9nhoAS3n6cSXK874FKC67kEd8QcVijBdX+CK/k9R19fn0t5xmCU4LpG9FT26dOnOHz4MG7fvo2xY8ciMTERSUlJmDhxIqqqqvDXX38hJyeHez0luJ5LcEVPZauqqpCUlITCwkK0tbXh/Pnz2Lp1K3p7exEdHY28vDyb11OC67kEV/TDyqpVq7i/h4WFIT8/H/n5+cPeDiW47k9wR8yAlBJc9ye4I6Y5KMF1f4Lrs6nscIzkBJdS2bfgywkuNccQfDnB9a1P64I3r9/4khEzIGVxJQ4XgtRukuZjxDeHVEjtJmk+3N4cz58/R2Jiors3Kxm5ubnQ6/XDWmeoiF2qaM/hAUNF7FIlenM4i6d///13rFu3zub1bW1tSEhIwLNnzwD0XzBSKpVISEhAdnY2jh8/7nRXPVR87mx7paWlaGlpwZ49e6BUKrkxhFQidncT/WzFWTy9ZMkSHDp0CCaTifty9Xo9IiMjERwczK0P9Ef7Dx48QElJCaZMmeLyoc3Z9r7//nu0trYiLS0NKpWK12eQ6k3SfLhlz1FRUcFddk5PT0dfX5/Npeiff/7Z4XoD8fT27dsREhKCMWPGIC8vD62trXj06BHeeecdxMbGcpehrVYrDAYDkpOT7T+Inx9mzZqF5cuX4+rVq2/9mfhub6jP4M1Ejez5xNNLly5FeXk5NmzYgMbGRnR3d9tkE9XV1Thx4gQeP36Mf//9FwCYARofw92elCJ2dxP1sMInnl6wYAFGjx6Na9euwWg0IiEhAXK5HADQ2dmJsrIylJSUYP78+QgMDIRWq8Wff/7JfE9n8Tmf7b35fzSkFLG7m6gDUj7xtEwmQ1JSErRaLa5cuWJzSLFYLLBarRg7dixGjRqF5uZmnDp1yul7OovP+Wxv/PjxePjwIReXSylidzfRz1aGiqeB/nyjoaEBISEh+Oijj7jng4ODkZubi7KyMiQnJ+PgwYNDftnO4nM+28vOzkZtbS2SkpK4sxWpROzuRpG9h4hxkzQfFNlLgNRukuZD9MMKkS5qDsJEzeGAN8brQqDmcMAb43UhUGT/Bm+N14VAe443eGu8LgTRT2XXrl2Lzz77DI2NjXjw4AFCQ0OxefNmLs9Qq9W4fv06ZDIZJk+ejOTkZKxcuRIymcxm/bt376KlpQXbtm1DV1cXTp06hc7OTigUCuTn52PWrFkA+uN1jUaDmpoavHr1CnPnzsWWLVu4G6Obm5sxb948uzoVCgV0Op2HvhVpEL05AECn06G0tBQKhQJnz57Fjh078MsvvyAoKIhXJH/hwgWUlpYiPDwcT58+xbfffou9e/dCoVDAZDLh4sWLXHOM1HhdCKLfZQ8AX3/9NSIjIwH0X542GAyoqanh7jUF7CP0wc2RlpaG2bNnAwD8/f0REBCAMWPGYPTo0dxPKQDSuoPdG4h+lz0AhISE2D02m80A+EXokyZNslm3qKgIhw8fxosXLxAWFob09HSEhYWN6HhdCJI4rAz8ow1+HBsbyzuSHxh/DIiJiUFMTAysViuqqqqwefNm/PbbbyM6XheCJM5WdDodGhoa8Pfff+PkyZMwm82Ii4tzKZK/desWNBoNWltb0dvbi76+Prx+/Rp9fX0jOl4XgiT2HMuWLYNGo+HOVnbv3s0NCgci9JcvX0KhUCA+Ph5NTU3MbUVGRsJkMmHHjh3o6OjA1KlTUVxczP1Sj1qtxrFjx1BQUIDOzk5Mnz4dK1ascBivx8TEAPCOeF0Iokf2a9euRVZWFr744guPvB8fUo3XhUCR/TB5Y7wuBEmMOYg0ib7n0Gg0YpdAGGjPQZioOQgTNQdhouYgTMwB6Q8//ODBMohYBjIsRxxdBFsI4DvBqiFSlSl2AYQQQgghhNj4P83tFNZz9ZxvAAAAAElFTkSuQmCC;" vertex="1" parent="1">
                    <mxGeometry x="473" y="381" width="135" height="132" as="geometry"/>
                </mxCell>
                <mxCell id="5" style="edgeStyle=orthogonalEdgeStyle;rounded=1;html=1;strokeColor=#000000;strokeWidth=3;exitX=0.5;exitY=1;exitDx=0;exitDy=0;" edge="1" parent="1" source="7" target="4">
                    <mxGeometry relative="1" as="geometry">
                        <Array as="points">
                            <mxPoint x="371" y="320"/>
                            <mxPoint x="540" y="320"/>
                        </Array>
                    </mxGeometry>
                </mxCell>
                <mxCell id="6" style="edgeStyle=orthogonalEdgeStyle;rounded=1;html=1;strokeColor=#000000;strokeWidth=3;exitX=0.5;exitY=1;exitDx=0;exitDy=0;" edge="1" parent="1" source="7" target="8">
                    <mxGeometry relative="1" as="geometry">
                        <Array as="points">
                            <mxPoint x="370" y="320"/>
                            <mxPoint x="225" y="320"/>
                        </Array>
                    </mxGeometry>
                </mxCell>
                <mxCell id="7" value="" style="shape=image;verticalLabelPosition=bottom;labelBackgroundColor=default;verticalAlign=top;aspect=fixed;imageAspect=0;image=data:image/png,iVBORw0KGgoAAAANSUhEUgAAAMkAAACECAYAAAA6AA+3AAAABmJLR0QA/wD/AP+gvaeTAAAW4ElEQVR4nO3dfUxUV/rA8e+IOgVr1yDyIvxorDqRsTWUIla0trCiVF0FQRvWZhsjCiIoGstAWwQ1VGyN0rXVjp01sWZ1K5VlwSq0utgdty6t1lhHgkprUxneLRhRlzfZP/hxy8i8ocAMcj4JiXPvnXuec53n3nvuPBxAEARBEARBEARBEAS7JTOybDqwob8DEQQ7cRbY2XXBUCMb/R8Q+fLLL/dLRIJgL0pKSqitre223FiSAJCent6X8QiC3UlPT+frr7/utnyIDWIRhAFFJIkgWCCSRBAsEEnyGImLi+OLL76wdRiPHZEkgmCByadbtpCUlMR3331nsGzq1Km89957NoqoQ2lpKQcPHkSn09HU1ISnpyezZ89m8eLFyOXyR95/TEwM4eHhhIaG9kK0vykvL0etVqPT6WhtbUWpVLJs2TKmTJnyyPvuq5jtkV0lCUBERATx8fG2DkPy7bff8s477xAeHs7q1asZM2YMFRUVnDp1irNnz/LKK6/YOkSTVCoVkydPZt++fYwYMYKSkhIOHTrUK0kymNhdkpiyZMkSkpOTeeGFFwCora1l6dKl5OfnU1JSgkql6vaeHTt20NbWZnKdXq8nNzeX/fv3S8vLy8t54403OHToEK6uruzatYt58+axevVqaZtx48YRHR0tvW5oaODDDz/k/PnzAAQEBBAfH8/IkSMBiI6OJjAwEJ1Ox5UrV3B2dmbdunX4+/uzZcsWrl69yvbt29m+fTs+Pj7s2bOH6OhoXnzxRXQ6HVevXmXjxo34+fmZbaer+vp6Kioq2Lx5M2PGjAHA398ff39/APLy8sz23c3NjZycHLKzs6mvr0ehUJCQkMDEiRNNxnzv3j00Gg1nzpzhzp07PPfccyQmJuLm5iYdBz8/P0pLS7l27Rpubm6oVCouXbpEdnY2d+/eJTg4mA0bNiCTGSsGsY3HYkwSEBBAUVGR9LN8+XImTpyIUqk0uy4kJITq6mp0Op20r/z8fPz9/XFzc+OXX36hqqqKOXPmmG0/PT2dxsZGNBoNarWa2tpaMjIyDLYpLCxk1apV5OTkMHfuXDIyMmhvb2fTpk0oFApUKhVFRUXs2bNHes+JEydYuXIlx44dIzg42Kp2Oo0aNQovLy8OHDhASUkJzc3NBust9b28vJy9e/fy9ttvk5eXR2xsLKdOnQIwGfO2bdvQ6/VkZWVx5MgRvL29SU1Npb29XWpDq9USHx9PTk4OSqWSjRs3cuPGDfbv349areabb74x+oWeLdldkhw9epSgoCDp58yZMz16f2FhIQUFBWRmZuLo6Gh2naOjI3PmzCEvLw+AlpYWCgoKWLBgAdBxhQBwcXEx2V5lZSUXL14kMTGR0aNH4+rqSkJCAsXFxdy8eVPaLjIykkmTJiGXy1m0aBENDQ0G640JDw9n8uTJDBkyxOp2OslkMnbt2oWLiwvvvvsu8+fPJz4+Hq1WC2Cx7w4ODgwdOhQnJyeGDx+OUqkkNjbWZKy1tbVotVrefPNNPDw8cHJyIjY2Fr1ez/Xr16XtFi9ejEKhkNq/d+8ea9asYeTIkXh5eeHn58e1a9fMHpf+Zne3W48yJjl37hxqtZqsrCycnZ2tWhcWFsaqVauIj4+nuLgYBwcHpk+fDnScjQHq6upwdXU12mZNTQ0ODg64u7tLyzw9PYGOD87o0aMN9gVIg/2mpiaz/enaprXtdOXi4sK6desAuHv3Ll9++SVpaWns3LkTX19fs3338PAgNTWVjz/+mFu3bjF+/HgiIiIYP3680VgrKyuBjpPBg6qqqnjmmWe6HYfhw4cjl8t54oknDJZZOi79ze6SxBS5XG5w8DrP8p3KysrIyMhg69ateHt7W73u6aefxsfHh4KCArRaLaGhoQwd2nFYvL29cXd356uvvkKpVBqNy9XVlba2NmpqaqQPtV6vB5DGApYMGWL8gt71vvxR23FyciIsLIwjR46g0+nw9fU123eAwMBAAgMDaW9v5+TJk6xdu5acnBzkcnm3mN3d3ZHJZOTm5vLUU09Z1e+Bwu5ut0yZMGECBQUFNDY2Ul1djVqtltZVV1eTkpLC+vXrefbZZw3eZ25dp7CwMA4fPszly5eZP3++tFwmk7F+/XqOHz/Ovn37KC8vp6mpiZ9//hmNRsPp06fx8PBgypQpZGVlcfPmTWpqati9ezfTpk0zenY3xtnZmZ9++om2tjaT2/S0nbq6Ot566y2+//57bt++zZ07d8jPz6eqqgofHx+LfT937hwajQa9Xk9rayv379+nubmZ+/fvG43Z1dWVGTNmkJmZKR2n0tJSUlNTaWlpseo42KsBcyWJiYkhMzOTyMhIxo4dy6JFi6SnPFqtlrq6OtLS0gzes2PHDq5fv25yXeeTspkzZ7J79258fX2lW5hOAQEBfPDBBxw8eJC4uDiam5vx9PQkJCREujVJS0vjo48+YsWKFchkMqZOncqaNWus7ltUVBTvv/8+OTk5KBQKg8F7Vz1px8XFhYULF3L48GGuXLlCW1sbXl5eBk8IzfXd19eXsrIyVCoVdXV1eHl5kZaWJo3zjMWckpLCp59+SlJSEvX19YwbN45ly5YxbNgwq4+FPTL2nG0p8FlRUVF/x2IzLS0tREREkJiYSHBwsK3D6VeDue8P+v9S+c+BJV2XD5jbrb7S3t5Obm4ucrmcWbNm2TqcfjWY+94TA+Z2q6+Ehoby5JNPkpSUZDBoHQwGc997YtAfmcLCQluHYDODue89MehvtwTBEpEkgmCBSBJBsEAkiSBYYHLgfvr06X4MQxBsz9icW2Dmy8Q+jUYQ7Fe3LxNNXkkG0zfuggBicjpBeGgiSQTBApEkgmCBSBJBsEAkiSBYIJJEECwQSSIIFogkEQQLRJIIggUiSQTBApEkgmCBSBJBsEAkiSBYIJJEECwQSSIIFogkEQQLRJIIggUiSQTBApEkgmCBSBJBsEAkiSBYIJJEECwQSSIIFpicdysoKKg/4xAEu2UySR78G4OC8LjLzs6mpKSk23KTSfLKK6/0ZTyCYHdMzX8txiSCYIFIEkGwQCSJIFggkmSAi4uL44svvrB1GL3uwoULxMXFSa+Tk5ONzvjeH0SSCHbpk08+YdmyZdLrP/7xj2g0Gtrb2/s9ll7/E9W//vorS5Ys4dSpU1Ztn5SUxHfffWewbOrUqbz33nu9HVqPlJaWcvDgQXQ6HU1NTXh6ejJ79mwWL16MXC5/5P3HxMQQHh5OaGhoL0T7m/LyctRqNTqdjtbWVpRKJcuWLWPKlCmPvO++ivlB165dQ6/XM23aNGnZlClTaG1t5fz58/j7+/dp+w+yi7/jHhERQXx8vK3DkHz77be88847hIeHs3r1asaMGUNFRQWnTp3i7Nmzdv14XKVSMXnyZPbt28eIESMoKSnh0KFDvZIk/UWr1eLn58fQoYYfT39/f7Ra7eBMElOWLFlCcnIyL7zwAtDxN+2WLl1Kfn4+JSUlqFSqbu/ZsWMHbW1tJtfp9Xpyc3PZv3+/tLy8vJw33niDQ4cO4erqyq5du5g3bx6rV6+Wthk3bhzR0dHS64aGBj788EPOnz8PQEBAAPHx8YwcORKA6OhoAgMD0el0XLlyBWdnZ9atW4e/vz9btmzh6tWrbN++ne3bt+Pj48OePXuIjo7mxRdfRKfTcfXqVTZu3Iifn5/Zdrqqr6+noqKCzZs3M2bMGKDjg9X5ocrLyzPbdzc3N3JycsjOzqa+vh6FQkFCQgITJ040GfO9e/fQaDScOXOGO3fu8Nxzz5GYmIibm5t0HPz8/CgtLeXatWu4ubmhUqm4dOkS2dnZ3L17l+DgYDZs2IBM1vHXCUtKSnj++ee79U+hUJCXl9f9g9LHBuyYJCAggKKiIuln+fLlTJw4EaVSaXZdSEgI1dXV6HQ6aV/5+fn4+/vj5ubGL7/8QlVVFXPmzDHbfnp6Oo2NjWg0GtRqNbW1tWRkZBhsU1hYyKpVq8jJyWHu3LlkZGTQ3t7Opk2bUCgUqFQqioqK2LNnj/SeEydOsHLlSo4dO0ZwcLBV7XQaNWoUXl5eHDhwgJKSEpqbmw3WW+p7eXk5e/fu5e233yYvL4/Y2FjpttlUzNu2bUOv15OVlcWRI0fw9vYmNTXVYOyg1WqJj48nJycHpVLJxo0buXHjBvv370etVvPNN98YDMrr6uoYNWqU0f7V1dWZ/X/pC72SJJmZmQQFBREUFERERAT379+XXgcFBfGXv/zF7PuPHj1qsP2ZM2d61H5hYSEFBQVkZmbi6Ohodp2joyNz5syRzkgtLS0UFBSwYMECoOMKAeDi4mKyvcrKSi5evEhiYiKjR4/G1dWVhIQEiouLuXnzprRdZGQkkyZNQi6Xs2jRIhoaGgzWGxMeHs7kyZMZMmSI1e10kslk7Nq1CxcXF959913mz59PfHw8Wq0WwGLfHRwcGDp0KE5OTgwfPhylUklsbKzJWGtra9Fqtbz55pt4eHjg5OREbGwser2e69evS9stXrwYhUIhtX/v3j3WrFnDyJEj8fLyws/Pj2vXrpk9LrbUK7dbycnJJCcnAz0fuMOjjUnOnTuHWq0mKysLZ2dnq9aFhYWxatUq4uPjKS4uxsHBgenTpwNIZ7C6ujpcXV2NtllTU4ODgwPu7u7SMk9PT6DjgzN69GiDfQHSYL+pqclsf7q2aW07Xbm4uLBu3ToA7t69y5dffklaWho7d+7E19fXbN89PDxITU3l448/5tatW4wfP56IiAjGjx9vNNbKykqg42TwoKqqKp555plux2H48OHI5XKeeOIJg2Vdj8vo0aOlk1VXDQ0NZk9efcWuxyRyudzg4D144MrKysjIyGDr1q14e3tbve7pp5/Gx8eHgoICtFotoaGh0iDR29sbd3d3vvrqK5RKpdG4XF1daWtro6amRvpQ6/V6AGksYMmQIcYv4p335b3RjpOTE2FhYRw5cgSdToevr6/ZvgMEBgYSGBhIe3s7J0+eZO3ateTk5CCXy7vF7O7ujkwmIzc3l6eeesqqfltDqVRSVlbWbfnVq1fx8fHptXasZddjkgkTJlBQUEBjYyPV1dWo1WppXXV1NSkpKaxfv55nn33W4H3m1nUKCwvj8OHDXL58mfnz50vLZTIZ69ev5/jx4+zbt4/y8nKampr4+eef0Wg0nD59Gg8PD6ZMmUJWVhY3b96kpqaG3bt3M23aNKNnd2OcnZ356aefaGtrM7lNT9upq6vjrbfe4vvvv+f27dvcuXOH/Px8qqqqDD5cpvp+7tw5NBoNer2e1tZW7t+/T3NzM/fv3zcas6urKzNmzCAzM1M6TqWlpaSmptLS0mLVcTDmpZde4sKFC92Ozfnz55k1a9ZD7/dh2fWVJCYmhszMTCIjIxk7diyLFi2SnvJotVrq6uq6lfTv2LGD69evm1zX+aRs5syZ7N69G19fX+kWplNAQAAffPABBw8eJC4ujubmZjw9PQkJCZFuTdLS0vjoo49YsWIFMpmMqVOnsmbNGqv7FhUVxfvvv09OTg4KhcJg8N5VT9pxcXFh4cKFHD58mCtXrtDW1oaXl5fBE0Jzfff19aWsrAyVSkVdXR1eXl6kpaVJ4zxjMaekpPDpp5+SlJREfX0948aNY9myZQwbNszqY/EghULB2LFjKS4uJjAwEIBLly7h4OBg0I/+IjOybCnwWVFRUX/H0q9aWlqIiIggMTGR4OBgW4fTrwZC3y9cuMAnn3winTySk5MJDQ3t0++o0tPT+frrrz8HlnRdbtdXkr7S3t5Obm4ucrncJpdvWxoofX/++ecNrq6ZmZk2i2VQJkloaChPPvkkSUlJ3b7VfdwN5r4/rEF5lAoLC20dgk3ExcWxdu1ag8H648DYrdmrr77Kyy+/3Cv7t+unW4Jgjb6uGLZ5FXBPiIphUTH8oP6oGB5wt1uiYrj3iIph6wy4JDFFVAyLiuGuerNi2O7HJJ3f9j4KUTHcnagYtp7Nq4ArKirYtGkTCxcuJCoqCo1Gw40bN/jvf//LsWPH+Nvf/mawvagY/o2oGO4fNq8CPnnyJHPnziU5OZnKykqOHz/O+vXraW1tJSAgoNuBFxXDvxEVw/1TMWzzMcmf/vQn6d/jx48nISGBhISEHu9HVAyLiuGuerNi2O7HJNYSFcOiYrir3qwYtvmVpLeIimFRMdxXFcODtgq4JwZC1WxfGQh9762KYVEF/JAGStVsXxgofe/rimGRJBYM5qrZwdz3rgZvz600WCuGYXD3vavH5umWKfYyobQ9TQAt9MxjnyT2wp4mgBZ6pteT5Ndff+X3v/99b+/WbsTExFBQUNCj91gq5xbsm7iS9ANL5dyCfbN5kty7d4/du3fz2muvsWDBAlJSUqiurgbg73//OytXrjTYvrKykuDgYKqqqgBISUkhKCiI4OBgoqKiOHjwoNlbmCVLlhicvWtrawkKCqKxsdHi/rqWgAcFBUljDHN9gI5y7gkTJnSLRaFQGP1rr4J9sfnTrW3bttHc3ExWVha/+93vOHDgAKmpqajVambPns3evXspKyuTPmQFBQX4+vpKhXzbtm0DOkrqf/zxRzZv3szYsWMf+pbP3P42bdqEXq/v9ht35vogk8nsbgJooWdsWipvqXx65MiRzJgxgxMnTgAdX24VFhYyb9687h0ZMoSJEyeyePFi/v3vfz9yn6zdn7Ul4MLAZdNSeWvKp1999VUyMjJYvXo1P/zwA42Njbz00kvSdqdPn+bQoUPS76AAJgsVrdHT/VnTB3ubAFroGZvebllTPj116lSGDx/O2bNn0Wq1BAcHS79vUV9fz9atW9m8eTN+fn44Ojpy9OhR/vnPf5ps01xJvTX7e5gScHubAFroGZsO3K0pn5bJZMydO5ejR4/yr3/9y+BWq6mpifb2dkaMGMGwYcMoKSkhOzvbbJvmSuqt2d/DlIDb2wTQQs/Y/OlWSkoK3t7eJCUlERYWxp///GdCQ0MNyqdDQ0O5ePEiHh4eTJo0SVru7u5OTEwMW7duZd68eezZs8fihy4mJoZbt24RGRlJSkqKwa2bNfuLioqiuLiYuXPnSk+3LPWhazl3J1tOAC30jCiV7ye2mABa6BlRKm9j9jQBtNAzNr/dEgR7J5JEECwQSWKEKGsXuhJJYoQoaxe6EqXyDxBl7cKDxJXkAaKsXXiQzR8Bd86O/sMPP/Djjz/i6enJ2rVrpXqplJQU/vOf/yCTyXBzc2PevHm8/vrr0uyFxmZXb2hoMDrbOWBxZvP+mKVcGFhsniTQMc3/li1bUCgU/OMf/0ClUvHXv/6VUaNGWVUKf+LECbZs2YKPjw8VFRUsX76cXbt2oVAoKCsr49SpU1KSiLJ2oad6JUkyMzO7zawRFBQk/fv1119nxYoVJt+/cOFCfH19gY6yj8LCQs6cOSPNYA7dS9e7Jknn7OpgfLbzznl6O8vaP//8c2nqz9jYWBYsWMD169elSZsFoSubzyoPHfPYPvi6trYWsK50vevs6uZmOxdl7cLDsIvbrc4Pb9fXM2bMsLoUvuvs6mB6tnNR1i48DLt4upWXl8fFixe5e/cun332GbW1tcycOfOhSuHNzXYuytqFh2EXV5I//OEPaDQa6enWtm3bpMFzZ+n67du3USgUzJo1i8uXL5vcl6XZzi3NbN4fs5QLA4vNS+Wjo6N57bXXCAkJ6Zf2rCHK2gcnUSrfA6KsXejKLsYkgmDPbH4l0Wg0tg5BEMwSVxJBsEAkiSBYIJJEECwQSSIIFpgcuKenp/djGIJge6Zm+Df2ZeJ0YEOfRiMI9usssNPWQQiCIAiCIAiCIAiCYKX/AZ75HGen5SLAAAAAAElFTkSuQmCC;" vertex="1" parent="1">
                    <mxGeometry x="270" y="140" width="201" height="132" as="geometry"/>
                </mxCell>
                <mxCell id="8" value="" style="shape=image;verticalLabelPosition=bottom;labelBackgroundColor=default;verticalAlign=top;aspect=fixed;imageAspect=0;image=data:image/png,iVBORw0KGgoAAAANSUhEUgAAATUAAAFLCAYAAAC3Nxu1AAAABmJLR0QA/wD/AP+gvaeTAAAgAElEQVR4nO3df1xUdb748dcBFX+UuqbID8PfbFJ5XTVLtB/q+qPM1NRc09tWS8oqAnoR9NsXzfx6sdY21FIprte8t1rlyhrZhppRF2t10zQz19SyEgSEAtPEHzDn+8dhxhkYhhmY4cyceT8fj3nozOfM+bxn5sP7/H4fEEIIIYQQQgghhBBCCCGE31L0DsAFWXoHIITB/Rn4u95BNJUvJTU1KiqKLl266B2HEIbz8ccfA0wHtukcSpO10DsAV0ybNo0HHnhA7zCEMJwRI0boHYLbBOgdgBBCuJMkNSGEoUhSE0IYiiQ1IYShSFITQhiKTx39FO6TnJzMZ599ZvPaXXfdxYsvvqhTRFpMERERxMXFWV47duwYb7zxBsePH6eqqoru3bszdepUxowZo1ucwrtJUvNjU6ZMsUkg3ubAgQOkpqby+OOPs2jRIlq3bs3+/ftZu3YtxcXFPPHEE3qHKLyQJDVRx7Rp01i8eDGDBg0CoLS0lMcee4x3332X48ePk5KSUuc9q1evprq6ut62wsJCduzYwaZNmyyvFxQU8Pvf/5633nqLrl272rxHVVXS09MZP348Tz75pOX1MWPGoCgKL7zwAmPHjq3zPiFkn5pwyZAhQ8jLy7M8nnrqKfr27UtUVJTDttGjR1NSUsKxY8cs83r33XcZPHiw3cT0ww8/UFxcbHczc9SoUSiKwsGDBz36WYVvkqTmx7Zv386IESMsj3379rn0/l27dpGbm8uqVato06aNw7Y2bdowZswYcnJyALh+/Tq5ubk8/PDDduddUVEBQOfOneu0BQQE0KlTJ8s0QliTzU8/1pR9agcPHiQjI4P09HQ6derkVNukSZOYPXs2cXFxHDhwgMDAQIYOHWp3/h07dgSgrKyszvW+JpOJn376yTKNENZkTU3UERQUxNWrVy3Pa68RnT59mpUrV/L8888TERHhdFv37t3p168fubm55OTkMG7cOFq0sL9cjYiIoGvXruzevbtO2969ezGZTAwePLixH1EYmCQ1UUefPn3Izc3l0qVLlJSUkJGRYWkrKSlhyZIlLFiwgDvuuMPmfY7azCZNmsTbb7/NV199xfjx4+uNQVEU4uPj2blzJ5s3b+b8+fNcvHiR3bt3s2bNGmbNmiUHCYRdsvkp6pgzZw6rVq1i6tSphIWFMXHiRA4dOgRAfn4+ZWVlLFu2zOY9q1ev5syZM/W2mY+kDh8+nHXr1jFgwADCw8MdxhEdHc1LL73Eli1b2LZtG1VVVfTo0YO4uDjGjRvnxk8sjMSn6qktW7ZMSg/5uOvXrzNlyhQSExMZOXKk3uGIGjWlhwxRT002P0WzUVWVHTt2EBQUxH333ad3OMKgZPNTNJtx48Zx0003kZycXO8BAiGaSkaWaDa7du3SOwThB2TzUwhhKJLUhBCGIklNCGEoktSEEIbiUwcKvvrqK71DEEJ4OZ86+VbvAIQwOEOcfOtTa2pyRYEQniE3MxZCCC8lSU0IYSiS1IQQhiJJTQhhKH6R1LKysli7di0A69atY+vWrTpHJITwFL9IasePHycqKsry/379+ukckRDCU/wiqf3zn/8kKiqKqqoqzpw5w69//Wu9QxJCeIhPnafmikOHDpGUlGR5PnPmTMv/x40bR+fOncnKynJrnzExMURHR3Ps2DG+/vprOnXqREJCguUGIUuWLGH//v0oikLXrl156KGHmDVrFoqiWN4/cOBATpw4walTp+jatSspKSl8+eWXZGVlcfnyZUaOHMnChQst76msrCQzM5N9+/bxyy+/cOedd5KYmCj1+4XfMmxSGzRoEHl5eezatYv9+/ezbNkytmzZQmVlJXPmzPFYv7t27WL58uX07NmTrKwsVq5cSXZ2NoqikJaWBmi3ePvmm29Yvnw5YWFhjBo1yvL+/Px8li9fzq233sq6detISkpi5MiRbNq0iQsXLpCQkMCgQYMsJyGnpaVx7do10tPT6dChA2+88QapqalkZGRYEp8Q/sTwm5+ff/655aYfhw8ftvzfU6ZOncptt91GUFAQEydOpKKigh9//NFmmoCAAPr27cujjz7KJ598YtP26KOPEhkZabn5b2VlJfPmzePmm2+mW7duDBw4kFOnTgFQWlpKfn4+ixYtIjQ0lLZt2xIbG0thYSFnzpzx6OcUwlsZdk3N+rKP3bt389JLLwFw5MgRADZt2kTPnj3d3q/1DXaDgoIALPfQ/Oijj3jrrbc4e/YsV65cAahzKznr97dq1YqgoCBat25t85p5fkVFRYCWSGsrLi6mV69e7vhIQvgUwya1vLw8SktLiY2NZfv27Rw9epQNGzawYcMGXeIpLy9nxYoVLF++nIEDB9KmTRu2b9/Ohx9+2Oh5hoSEoCgKO3bsoH379m6MVgjfZejNz6+++srmVA7z//Vw9epVVFWlXbt2tGzZkuPHjzf5QEVwcDDDhg1j1apVFBQUcPXqVU6cOEFqairXr193U+RC+BbDrqnBjVM5zP+///77dYslJCSEOXPmsGLFCi5evEhkZCT33Xdfk2vELVmyhC1btpCcnEx5eTk9e/Zk5syZtGzZ0k2RC+FbfOnwmNzMWAgPkZsZCyGElzL05qeriouLmTFjht22f/mXf+GLL76w2zZ27FgWL17sydCEEE6SpGYlJCSEvLw8vcMQQjSBbH4aUExMDHv27DFsf0I44hdJTUoP6Wvu3Lm89957eoch/IRfbH4eP36cYcOGWf6v56kd/mj9+vV6hyD8iF+sqUnpISH8h2HX1PQqPeTu0kGNmSfA999/T3x8PN988w3h4eHEx8dbrjN1ps977rmHY8eOcfLkSZKSkqioqCArK4vy8nIiIyOZP38+ffv2tfR39uxZFi5caLfk0ty5cxk/fjzjx4+3mf/Ro0ftxpedne2wLyEcMeyamrn00OLFi3nggQfIy8vjqaee4ne/+x15eXluT2hm+fn5xMXFkZ2dTVRUFElJSZw9e5ZNmzaRkZHBp59+yscff2yZPi0tjcLCQtLT09m2bRsRERGkpqaiqmqj5wmQk5PD008/TVZWFiNGjCAlJYWKigqn+3z//fd55pln2LlzJ5GRkWzYsIFnn32WnJwcYmNj2bt3r01/u3btYvbs2WRnZzN27FhWrlxpM7/a6ouvoKCgwb6EcMSwSc2suUsPeaJ0kCvzNHvkkUcYMGAAbdu2ZcaMGXTp0oV9+/Y53efkyZO5/fbbCQgIIDAwkBYtWtC2bVtatWpFVFQUsbGxNv05U3LJmfic6UsIRwy7+ekNpYfcVTrIlXmahYaG1nleWlrqdJ/BwcE2701NTWXjxo1cuHCB3r17M2XKFHr37m33c9cuuWRPffE505cQjhg2qXlb6SF7PFk6yJy8rJ8PGzbM6T5rV82Njo4mOjoaVVX54IMPiI+PJzs725LA3BWfJ/oS/sXQm5/eVHrIHk+WDsrJyeGLL77g8uXLbN26ldLSUoYPH96oPg8ePEhmZiaFhYVUVVVhMpm4du0aJpPJ7fF5oi/hXwy7pgbeVXqoPp4qHTRhwgQyMzMtRxfT0tIsm4iu9jlgwABOnz5NSkoKZWVldOvWjWXLltGmTRu3x+eJvoR/kdJDotnFxMQwffp0Ro8erXcoooaUHhJCCC9l6M1PV0npISF8nyQ1K1J6qHlkZmbqHYIwMNn8FEIYiiQ1IYShSFITQhiKJDUhhKH41IGCpt4jUwhhfD518q3eAQhhcIY4+dan1tTkigIhPMO6qo2vk31qQghDkaQmhDAUSWpCCEORpOYHDh8+zNy5cy3PFy9eXOeeBkIYhSQ1P/D666/b3E3r8ccfJzMz0+GNUYTwVT519LOxfvrpJ6ZNm+b0XYmSk5P57LPPbF676667ePHFFz0RnlOSk5OJiIggLi7O8tqxY8d44403OH78OFVVVXTv3p2pU6cyZswYyzSnTp2isLCQu+++2/Ja//79qaqq4tChQ5bb2AlhFH6R1BpjypQpNgnE2xw4cIDU1FQef/xxFi1aROvWrdm/fz9r166luLiYJ554AtBurzdw4EBatLD9qQcPHkx+fr4kNWE4svnpomnTpnHo0CHL89LSUkaMGMGlS5f4xz/+wYgRI+o8Dh065LDNfA9MawUFBYwaNYqSkpI6MaiqSnp6OuPHj+fJJ58kODiY9u3bM2bMGBISEtiyZYvlfcePH6dPnz515hEZGcnx48fd/O0IoT9Jam40ZMgQ8vLyLI+nnnqKvn37EhUV5bBt9OjRlJSUcOzYMcu83n33XQYPHmy5a7q1H374geLiYpvNTLNRo0ahKAoHDx4EoKyszOb2dWYdO3akrKzMjZ9eCO9g2M3PVatWsWvXLpvXrM+anjVrFn/4wx/qff/27dvZvn275fmKFSsYPny40/3v2rWL3NxcXnnllTo3DbHXNmbMGHJycrjjjju4fv06ubm5JCUl2Z23+U7rnTt3rtMWEBBAp06dLNMI4W8Mm9QWL15sKbHt6oECaNo+tYMHD5KRkUF6ejqdOnVyqm3SpEnMnj2buLg4Dhw4QGBgIEOHDrU7f/OaV1lZGV26dLFpM5lM/PTTT5ZpbrnlFrsJrqKiwm5SFMLXyeani4KCgmzuPF47YZw+fZqVK1fy/PPPExER4XRb9+7d6devH7m5ueTk5DBu3Lg6O/fNIiIi6Nq1K7t3767TtnfvXkwmk+UAQFRUFKdPn64z3cmTJ+nXr59zH1oIHyJJzUV9+vQhNzeXS5cuUVJSQkZGhqWtpKSEJUuWsGDBAu644w6b9zlqM5s0aRJvv/02X331FePHj683BkVRiI+PZ+fOnWzevJnz589z8eJFdu/ezZo1a5g1a5ZlX9y9997L4cOHqa6utpnHoUOHuO+++xr7NQjhtQy7+ekpc+bMYdWqVUydOpWwsDAmTpxoORqan59PWVkZy5Yts3nP6tWrOXPmTL1tgwYNAmD48OGsW7eOAQMGEB4e7jCO6OhoXnrpJbZs2cK2bduoqqqiR48exMXFMW7cOMt0kZGRhIWFceDAAaKjowH48ssvCQwMtPQrhJH4VD01o5ceun79OlOmTCExMZGRI0e6bb6HDx/m9ddfZ/369YC2v3HcuHGG/i6Fa4x0M2NZU/MSqqqyY8cOgoKC3L5Z+Jvf/MaS0EA7MiyEUUlS8xLjxo3jpptuIjk5ud4DBEKIhslfj5eofU6dEKJx5OinsCFlioSvk6QmbEiZIuHr/GLzszFXFDhLyhQJ4V38Iql5mpQpEsJ7yOanB0mZIiGanyS1RjCZTE2eh5QpEsIzDLv52ZTSQ+fOnWPjxo0cOXKEdu3aMWrUKMaOHUuXLl344IMP+Pnnn3n88cct00uZIiG8h2GTWlNKD33wwQeMHTuWxYsXU1RUxN/+9jcWLFhAVVUVQ4YMITY21mZ6KVMkhPcwbFJrCvOOc4DevXszf/585s+f7/J8nC1TtGLFinrLFNlrsy5TlJ+f73SZotqlhqRMkTAi2afmQVKmSIjmJ2tqHiRlioRoflJ6yEdJmSLhTlJ6SOhKyhQJUT9Jaj5IyhQJUT/5i/BBUqZIiPrJ0U8/EhMTw549ewzbn5RNEiBJTeho7ty5vPfee26bn5RNEuAnSe2nn35i1KhRzdbfnDlzyM3NtXktOTmZESNG1Pkj/vbbbxkxYgQPPvhgs8XnLdavX+/wHDtXNFQ2SfgPv0hq3qJXr1688847Nq/l5OTQq1cvnSIyjobKJgn/IQcK7CgrK2P16tV8+eWXdOnShUceeYR169axY8cOOnToQGVlJZmZmezbt49ffvmFO++8k8TERLp27crzzz/PyZMneeGFF3jhhRfo16+f5RSJoUOHsmfPHk6cOMFtt91GZWUle/fuJSYmho0bN9rE4KgP0PZXDRw4kBMnTnDq1Cm6du1KSkoKX375JVlZWVy+fJmRI0eycOFCFOXG6Yjff/898fHxfPPNN4SHhxMfH2+5asGZPu+55x6OHTvGyZMnSUpKoqKigqysLMrLy4mMjGT+/Pn07dvX0t/Zs2dZuHAhX3/9NZ06dSIhIcFyWdbcuXMZP368ZW3NPP+jR4/ajS87O7vevo4fP85vfvObOr9lZGQkOTk5TR8UwmfImpody5cvp127drz55pukpaXV2dmdlpZGYWEh6enpbNu2jYiICFJTU1FVlaVLlxIZGUlKSgp5eXk253wpisKECRPYsWMHALt376Z///4EBwfXicFRH2b5+fnExcWRnZ1NVFQUSUlJnD17lk2bNpGRkcGnn35aZ0e5uR5bVlYWI0aMICUlxXJNqjN9vv/++zzzzDPs3LmTyMhINmzYwLPPPktOTg6xsbF1igbs2rWL2bNnk52dzdixY1m5cqXDfVz1xVdQUOCwLymbJMwMm9RWrVplKa44ZcoUTCaTTcHF//iP/7D7vsLCQo4dO0Z8fDwdO3YkNDSU2bNnW9pLS0vJz89n0aJFhIaG0rZtW2JjYyksLOTMmTMNxvXwww+zb98+Ll68SE5ODhMnTqwzjbN9PProo0RGRtKmTRvGjBlDZWUl8+bN4+abb6Zbt24MHDiQU6dO2cz7kUceYcCAAbRt25YZM2bQpUsX9u3b53SfkydP5vbbbycgIIDAwEBatGhB27ZtadWqFVFRUXUqmEydOpXbbruNoKAgJk6cSEVFBT/++GO930998TnTlxBg4M3PxpYeKisro02bNnTo0MHyWmhoqOX/RUVFgPbHWltxcXGD+8c6duzI3XffzerVq7ly5Qp33XUX+/fvt5nG2T6s10xatWpFUFAQrVu3tnnNukpI7c9ifl5aWup0n9ZrlaGhoaSmprJx40YuXLhA7969mTJlCr1797b5vGZBQUEAdWJyJr6G+pKyScLMsEmtsTp37kxlZSUXLlywJDbzHzxASEgIiqKwY8cO2rdvb3ceAQGOV4AnTpxIQkICsbGxNvu7XOmjsaw/i/n5sGHDnO6zdrzR0dFER0ejqioffPAB8fHxZGdnWxKYu+JrqC8pmyTMDLv52Vjh4eHcfvvtrF27loqKCoqKinjttdcs7cHBwQwbNoxVq1ZRUFDA1atXOXHiBKmpqVy/fh2ATp068e2339Yp4WPWv39/8vLymD59ut12Z/porJycHL744gsuX77M1q1bKS0tZfjw4Y3q8+DBg2RmZlJYWEhVVRUmk4lr1641qdx5ffE11JeUTRJmsqZmx9KlS3nppZeYOXMmnTt35qGHHuLEiRO0bNkSgCVLlrBlyxaSk5MpLy+nZ8+ezJw509I+Y8YM/vSnP5GdnU1kZKTNwQJnNdRHY02YMIHMzEzL0cW0tDTLJqKrfQ4YMIDTp0+TkpJCWVkZ3bp1Y9myZXVKkrsjvob6krJJwkxKDznhwIEDrFy5Uk4N8LCYmBimT5/O6NGjG/V+KZvUeFJ6yODy8vIIDAxk8ODBFBUVkZGR4daaZcIzpGySAElqdg0aNIj09HRWr15N69atuffee21O6xBCeC9Jana0b9+epUuX6h1Gs7K36fbggw9y//33N1sMmZmZzdaXMC45+ikAqXAhjMMvkpo3Ven47LPP6ky7devWZovNHqlwIYzEL5Kat2jfvj0bN25s0nlcniAVLoSRyD41OzxVpWPcuHF8/PHHvP/++/XWEVuyZAn79+9HURS6du3KQw89xKxZsyxn8jemOkdD1TekwoUwEklqdixfvpzg4GDefPNNKisref75523a09LSuHbtGunp6XTo0IE33niD1NRUMjIyWLp0KYWFhUyePNnmnpqgXYv5zDPPsH79ekaOHGn3JNW0tDQATCYT33zzDcuXLycsLMxm8zk/P5/ly5dz6623sm7dOpKSkhg5ciSbNm3iwoULJCQkMGjQIMv5WY7iVRRFKlwIQzHs5qe3VukYOXIkwcHB/OUvf3E4XUBAAH379uXRRx/lk08+sWlzpTpHU+MVwtcYdk3NW6t0KIrC3LlzWbRoERMmTKjT/tFHH/HWW29x9uxZrly5AmApkmjmSnUOZ+KVChfCSAyb1BqrOap03HnnnQwZMqTOeVnl5eWsWLGC5cuXM3DgQNq0acP27dv58MMPG/15nIlXKlwIIzHs5mdjNUeVDtBO5fjwww9tEubVq1dRVZV27drRsmVLjh8/TlZWVpM+jzPxSoULYSSS1OxYunQply5dYubMmSxevNiyw926SkdERATJyclMmjSJtWvXMm7cOJsqHQcOHGDs2LE296G0Fh4ezsSJE7l48aLltZCQEObMmcOKFSt46KGHWL9+vVuSSkPxWle4MJMKF8JXSZUOJ/hDlQ6pcOHfpEqHwfljlQ6pcCGMQpKaHVKlQwjfJUnNDn+s0iGEUciBAlGvmJiYOvc8NVJ/vu7w4cM2B6IWL15c5z6v/kiSmvAZc+fO5b333tM7jHo1d3xSLso+v0hqzV16yFWOShXV/iP59ttvGTFiBA8++GBzhugV1q9fX28hAHvM36H1Izk52S2x2PvNXI2vKaRcVP1kn5oX69WrF++8847NH0pOTg69evXi3LlzOkbmO6ZMmUJcXJzeYbhdQ+WiBg8erFNk+pOkZkdMTAz33HMPx44d4+TJkyQlJTF06FCH5Xuys7PJysqivLycyMhI5s+fT9++fQHHpX8clSoaOnQoe/bs4cSJE9x2221UVlayd+9eYmJi2Lhxo03MDZUXakzJIoDvv/+e+Ph4yy3r4uPjLdeiOtNn7e+xoqKi3u8J4OzZsyxcuJCvv/6aTp06kZCQYPkDnTt3LuPHj7ckefP8jx49ajc+R6ZNm8bixYstJxeXlpby2GOP8e6773LTTTcRExNDdHQ0x44dqxNLfb9Z7fgqKip45ZVXLGtOQ4YMIS4ujptvvtkSf319NDSmpFxU/fxi87Mx3n//fZ555hl27tzJyJEjSUtLo7CwkPT0dLZt20ZERASpqamoqkpBQQEbNmzg2WefJScnh9jYWJuL5x29d+nSpURGRpKSkkJeXp7NuWKKojBhwgR27NgBwO7du+nfvz/BwcF14nXUh1l+fj5xcXFkZ2cTFRVFUlISZ8+eZdOmTWRkZPDpp5/W2dGck5PD008/TVZWFiNGjCAlJcVy8bszfVp/j5GRkQ6/J4Bdu3Yxe/ZssrOzGTt2LCtXrnS4j8hRfE1VXyyOfjNrzz33HJcuXSIzM5OMjAxKS0tZuXKlU300NKakXFT9DJvUGlt6yGzy5MncfvvtBAQENFi+JzAwkBYtWtC2bVtatWpFVFQUsbGxQNNL/zz88MPs27ePixcvkpOTw8SJE+tM42wfrpQsMnvkkUcYMGAAbdu2ZcaMGXTp0oV9+/Y53af19+joezKbOnUqt912G0FBQUycOJGKigp+/PHHer+f+uIz2759u83vbt3WEFdjsVZUVMQXX3xBYmIit9xyC8HBwcyfP58DBw7YzKO+Ppz5roR9ht38bGzpITPrtaGGyvdER0eTmprKxo0buXDhAr1792bKlCn07t27yaWKOnbsyN13383q1au5cuUKd911F/v377eZxtk+XClZZGZddsn8vLS01Ok+rb/H0NDQer8n689rFhQUBFAnJmfiM2vKPjVXY7F2/vx5AgMDCQkJsbwWHh4OaAuhW265xWEf4eHhDr8rKRdVP8Mmtaay3q/kTPme6OhooqOjUVWVDz74gPj4eLKzs91SqmjixIkkJCQQGxtrE5cr8TWWdRUR8/Nhw4Y53WfteOv7nsx/0O6KryFBQUE2CcrVTdaGfrPg4GCqq6s5f/68JbEXFhYC0KVLF6f6cPRdSbmo+hl289OdGirfc/DgQTIzMyksLKSqqgqTycS1a9cwmUxuKVXUv39/8vLymD59eqPia4qcnBy++OILLl++zNatWyktLWX48OGN6tPR9+Tu+BrSp08fcnNzuXTpEiUlJWRkZLjUb0O/WWhoKP379yc9PZ0ff/yR8+fPs27dOu6++27LWpojDX1XUi6qfrKm5qQlS5awZcsWkpOTKS8vp2fPnsycOZOWLVsyYMAATp8+TUpKCmVlZXTr1o1ly5ZZ7kHg6L2glSr605/+RHZ2NpGRkfXueG5sfE0xYcIEMjMzLUcX09LSLJtMrvbZ0Pfk7vgcmTNnDqtWrWLq1KmEhYUxceJEl87vcuY3W7ZsGa+++ip/+MMfUBSFu+66i3nz5jk1/4a+K+tyUdHR0YCUizKT0kPCZ8XExDB9+nRGjx6tdyi6cGe5KCk9JITQnZSLsk/2qQkhDEXW1ITPqn3jGiFA1tSEEAYjSU0IYSiS1IQQhiJJzaD8vVCgv39+f+ZTBwq++uorvUPwCaqq8vnnVxk0qHXDExuUyQRHj15lwIDGXX4lfJdPnXyrdwC+on37e2nVKoKysjf1DkVXXbv+kUuX/s4vvxzROxRfYYiTb31p81ORR8OP0NCE1HbtBtGiRfBevWPR+xEQEHSqffsH1JCQxKf0jsVHHj6f0MC3kppoQEhI4jxQngelHFT/rhSoOQ+UKwqZISEJ0/QORjQPSWoGERqaMEtRWKsoyv8B9RjaH7S/KwV2KYqaHhCgvBkSktg8d0URupKkZgBhYQmPgPKfwLpz515eBXQGnCvRamznVVUJPnduzSJVVTYrClkhIYkP6B2U8CxJaj4uJGThCFVlq6Lw30VF6QtqXu4MyOYnynlQuwBqUVHBH1VVfUdR2BkWlthwFUnhsySp+bCQkAVDFMX0Dih/O3euMAZQ4bkAoBMopQ293+gUxVSqKGpNPfGs6uLiyicURclTVXaGhS2seysmYQiS1HxU167xdyiK+jdgf7t21Y9DVjVAeHjpr4BAVZUDBVpiV7rUJHrgtesBATymKOphVTXlhoX92236xic8QZKaD+radUEvRQnYpaqcNJlaTD59ep2l2L6qtu4C0LKlJDVFMZ0HAmsSPQAFBS9XQuXDwElVrd4TEpLYQ7cAhUdIUvMxt5+fJqAAABaBSURBVN4aFxYQoO5RFEpbtbo6vqRk9S+2U1R1BlCUar9PalVVgecBTKaWNjdKPXfutctXrgQ9jHaEeE/nzomh9t4vfJMkNR8SHj7vlqqqFruAFqpaPfqHHzaU150q4BaAoCDF749+mkwtSgFUValz9+fy8hcuVFW1HK8odGjRgtxu3RZ0av4IhSdIUvMh1dUt7wT1OhChKIHZoaEJU2BaoO1Ups7Az9abpP6qtLRdGWCqOQJq0aPHc63DwhJjWrSo2gt0VhRKTCaluz5RCnfzqQva/V1xcfpHwMCwsIThEBCvqmwNDe1WoCgJG1q0uPbaDz9sKFdVJVhR8Psjn5rnqiDxJ9DW1EJC5ncJCAh4+sqVinhFobOi8I7JpD5ZXLzmM70jFe6j6B2AaLzw8IRp1dXKm4rCdaAK2AR0BXoXFaXfrW903iE0NPG4ovAPVeUq8K+qyjVQ2yoKE4qK1uzSOz7hfrL56cNUNWCaoihHg4IIV1VWAI8CM+S6TxvnVZXfqyojVZVFqtoiXFGUr4An9A5MeIYkNR8VGvpv3VVVnawo6kvffZdeUVycvrqoqGNvVVWmg7JX7/i8haKo74PyaHFxx18XF6e/WlKy+hdVVV8G5bGwsIQIveMT7iebnz4qLCxhtaoqvysqutwTXruudzy+ZXbL0NC23yqK8va5cy8n6x2NcC9ZU/NBnTsn36yqyh8URV0nCa0xXruuKMqrqqrO+dWvUjroHY1wL0lqPqhVq6tPAa0UpUpufNlILVpcyQACWre++pTesQj3kqTmc54LACVeUdTNhYWv+v0Jto1Vc/rLZiARnpNTmwxEkpqPCQureERV6QUt1ukdi69T1et/BrqFhFx4VO9YhPtIUvMxqsoCRVHeO3fupRN6x+LrSkpeOQO8oyjqIr1jEe4jSc2HhIUlDgTuq65WX9Y7FqNQFP4MDJbCkcYhSc2HqKqyADhWUpKep3csRnHuXPoniqLuV1X13/SORbiHJDUfceutcWGgPqaqvITcA9WtTCb+DMrEbt0W9NE7FtF0ktR8RFVV4DygonXrjn/ROxajKS4+l60onDGZ1ES9YxFNJ0nNB3TrtqANKLNVVX31u++eu6J3PMaTVa2qyjpV5anw8Hm36B2NaBpJaj6gutr0BHCzyUSG3rEY1fXrLTcB10ymlrP1jkU0jSQ176eAkgDKf58/v6ZE72CMqqzsxYuKorwOJPTo8VxrveMRjSdJzcuFhi4YC/QLDDSt1TsWowsIYA3wqytXLkzXOxbReJLUvJ66ANhTULDmqN6RGF1BwcuFQJaiqElIBRufJUnNi4WELLgdGK2qpnS9Y/EXgYHqi8DtYWEJv9U7FtE4ktS8mKKoicCp4uJOuXrH4i8KCtYcVRT1I1Vlod6xiMaRpOalQkLmdwFmgvIyPGfSOx5/Ul3Nn0EZ161bQn+9YxGuk6TmtQJjQbliMgX+l96R+JuSkjXvAf+sqlIS9I5FuE6Smhe6/fbnWgUE8EdQN9a9A7toBioo6YrCTLl7u++RpOaFfvzxwgygc0BA9Xq9Y/FX7dpVvQFUtGrFH/WORbhGkpoXUhQ1UVXZVli4rkDvWPzV6dPrrioKG1WVeV27JrXTOx7hPElqXiYkZOEIYICqKnKyrc6qq1usB9oEBFT/q96xCOdJUvM6pgVAfnHxy//QOxJ/V1Ky+jzwJqgLtXtDCF8gP5QX6dYtvq+iMF47jUN4A0VRVwO9w8LKH9Y7FuEcSWpexGQKSAB+KCoqyNE7FqE5d27N16DmqqoiJ+P6CElqXqJHj8SOqsrvQUmHrGq94xE3BASofwbuDwlZMETvWETDJKl5iWvXmA2oV6602qx3LMJWYeHavaAerrlsTXg5SWpe4bkWqso84PXy8hcu6B2NsEd5GZgWFpYQoXckwjFJal4gLKx8ChBuMimv6h2LsK+o6PJfgCIgXu9YhGOS1LxDIvDXkpKXv9U7EFGf164rivqqqiqzf/WrlA56RyPqJ0lNZ+HhiUNVVblHUZCaaV6uVSslA1Bat772tN6xiPpJUtOZdoNi5dC5c+mf6B2LcOy779IrVJX/BDUBnmuhdzzCeY+h3SxXHs3w6NDht2rr1n11j8PBIwvP0vvzufQIDOygduo0WQ0IaKd7LPJAxQ5HSxu5+UQzuHDhA71DcGRBM/WTDvy9mfpqkurqC/z001/1DkPAULR90XU4SmrbPBOL8CHTmqmfvyPjTbjOblKTfWpCCEORpCaEMBRJakIIQ5GkJoQwFElqQghD8caklkvdc1H0vplvLjTrGf8HgSebsT9/5o3jDWAYsAv4GagEDgGulhX3xDjy+rHpjUkNYA2gWD3G6RuOMDhvG28PAXvRTnW5A+iGFuM6YKmOcfkEb01q9SkAfmv1vBvakrUj2kC0d8bxbxtoiwW+rNVPX6AK6F5PHEeAFcCHaEvSr4Extdr/Hcivaf8cbcnrzOf4CzAI+M+a1/bXE4PwPD3GmwK8CmQCzwE/AD8CW4A4IJUb47Ix48jwY9PXkpojudgubZeh/WD7G2j7byAC2x92DrAH+N5Bf08Ai4EQtAH3XzXzNotFG4DdgK3A34AuTnyO36FtajxVM797nHiPaH6eGm/9gB5o46m2twETMNqJ+ByNI0OPTW9NagnYLuEmufj+36Nt948HLjXQdgltAMXWtAfVtL/eQB9rgH8Al4H1QDAQZtW+EfgIbWn4AlAITHbxc4jm4U3jzZxcCu30Uw0Uo421pjD02PTWpFZ7H8cOF947Bu2HeghtADjTth6YCtyCdmlQFfBuA/2ct/p/Zc2/baxeq10b7Vu0JaPwPt403kpr/g2301cg2pbBeTttrjD02PTWpFafSmwTR+0l1gC01fspwAkX2o4DB9CWmLHAZuB6E2PtWet5L7T9FdDw5zA1sW/hHnqMt3+ibYbaO9I5Ay2x7XEyvvrGkaHHpq8ltSNo2/Md0XaWvmDV1h3YCfwRqF2bzFGb2XogGYhG20nbVLHA/cDNQBLaktBc3sHR5wCtbHR/HBccEJ6nx3hTgfnAM2gHCm4FOqEluVeAldzY19vYceR3Y9NcT00vjs4J6wX8L/AL2hGkP3LjyEwi9R9xctRm1hLtB9vrRExHgFlWz1vXzK+PVXsasA+4CBwG7nXyc4C2E/mfaEtvPY8wZdE89dQe83AfjnjjeAO4D22N7CJwBe1Aw5MuxAf2x5FRxqZLeUrvpKaXILRD579zw7xqJz1f5Q9JTS/uHG+uMMrYrDdP+drmp6cowDy0/QnbdY5FGJ+MNw/yqe1iD7oMVABP0/QDBEI0RMabB0lS07RpeBKXDHDz/ISxuHu8ucLwY1M2P4UQhiJJTQhhKJLUhBCGIklNCGEojg4UePr8JOH97qF5TrBcQPPdjk8YQ73XqsqamhDC8Pz1igJRl1xRILyVXFEghPAPktSEEIYiSU0IYSiS1IQQhiJJTQhhKJLUhBCGIklNCGEoktSEEIYiSU0IYSiS1IQQhiJJTQhhKJLUhBCGIklNCGEoktSEEIYiSU0IYSiS1IQQhiJJTQhhKJLUhBCGIklNCGEoktSEEIYiSU0IYSiS1IQQhuLoZsZy2zLRDShohn6GNkMfwljqHTOKndceA7Z6LhbhY/4Hz949Xe4xK5rCXg6rQ25mLMzkZsbCW8nNjIUQ/kGSmhDCUCSpCSEMRZKadxsB7Ld6/jdgqk6xCGHmc+NSDhR4j/3ARKvn9wJf4+QRHzeQAwXCHr3HJTTzgYIQoMqF6XPRgrN+5HogLlfkAunN2N9B4Mlar/0G6IO2FDTLB1oBv22esLyeEcYawDBgF/AzUAkcAv7VxXnYG0NN5ZPj0ls2P9egZXnzY5y+4XiFR4G9wPVar++uaRON421j7SG03/nvwB1oJzyvAdYBS3WMqz5ePy69JanVpwDb7N8NbenaEW0w1l7qqjXTO2qLBb6s1U9ftCV+93riOAKsAD5EW5p+DYyp1f7vaEusn4HP0Za+znyOvwCDgP+sec28r+KemvnW9nlNm3AvPcaaArwKZALPAT8APwJbgDgglRtjsjFjyC/HpbcnNUdysV3iLkP7Yvc30PbfQAS2P+4cYA/wvYP+ngAWo23ybAH+C9t9CLFog7Ab2hUZfwO6OPE5foe2ufFUzfzMAyMcKLUz/XkgzIn5Cvfx1FjrB/RAG0u1vQ2YgNFOxFffGAI/HJfuSmqbubGEKgICsV1q/b8G3p9Qa/pJLvb/e7Rt//HApQbaLqENotia9qCa9tcb6GMN8A/gMrAeCMb2R9wIfIS2RHwBKAQmu/g5RMM2Y5yxZk4uhXb6qQaK0cZZU/jduHRXUnuSG0uqULQfxHrp9X8beH/t/Rw7XOh7DNqP9RDaIHCmbT3aIehb0K5rrALebaCf81b/r6z5t43Va9/Wmv5btKVjY53D/hI1uKbNXz2JccaaeY0n3E5fgWhbBefttLnC78alt29+VmKbOGovtQagreJPAU640HYcOID2BxKLtvSvvePTVT1rPe/FjQoXDX0Ok5357Uf7DLUNRItduJceY+2faJuh9o50zkBLbHucjM/eGAIZl0DTz1NrzGH2+k6fyAKy0XZcdkf7gVWr5wVoA6k2R21mjwElaD9cnwZiOgLMsnreuiaOPlbtPwL3AzcDSWir++YlmqPPAfAO8GdsS0ENQluS1y4P9S22Byk8ydvPUzPCWJsAXEU7UHAr0AktyVUAy52MD+yPIaOOS3AxT3lTUusF/C/wC9pRpD9y40tPpP6jTo7azFqi7ZPZ60RMziS1NGAfcBE4jHZCojOfA7Qdyf9EW4Jbn6m9H3jE6vlw4CTNt4btT0lNr7EGcB9aQrkIXEE70PCkC/GB/TFk1HEJzZzUfEUQ2lLsd26YV+2k5y4jsR1M7+HZ2ma1eXtS8xXuHGuuMOq4BAd5ylHlWyNTgHlo+xS26xyLIx9ie3h+vF6BiEbzlbHmCq8el/6a1C6j7bN4mqYfIBDCERlrzcxfk1qbhidxib2jQUKA+8eaK/xyXHr7KR3CeT5XDkb4Ba8Yl/5yoMBoPFEORg4UiKbyVJkiry495ApvLB0jZYr0429jDaRMUYN8cfPT20rHeAOvLwfjo7xtrEmZIif4YlKrj5QpqstrysEYjJQp8uJx6QtJLdAN85AyRcIZ3jzWpEyRk7yh9FBvtOvPfgLOACuBXwPtgGeARbWm96bSMfWRMkWesxn/HGtSpshJ3lB66HHgDbSl0CTgJiAP+A7tmrjNtab3ptIx9ZEyRZ7zJP451qRMkZO84eTbFVb//wJt6ZjQiPk4WzpmMvWXjrHXZl06ZjKeK1OUU/N/vykHowNfHmvWZYpq/6aeLFNkiHHZ3FU6XOGNpWOMXKbI289T87exJmWKbvDq0kOu8MbSMUYuUyRJzT4pU6R/mSIpPdRE/lqmyNuTmhFJmSLnSOmhJvCV0jFeXQ5GOMVXxpormn1cSlJrmJSOEc1FxpobSFJrmJQpEs1FyhS5gTdcUdAS7dyhi8AxnWMJBP4D7URIvWNpLK8o9eIjQtD2y3R2cno9x6qMzSZo7gMFU9HOz+nQjH3W5xFsYxmMdoTJU/YDMR6Yp7tKvRj9QIGrSa05x2rtsSFj05ZXlx4agHYi3gUPxOKqwdjGchDtlAx3sFea5R60C5Tdxd9KEHnylA57mnOs1h4bMjad5A2bnx3QTij0Br/Ce2JpDClB5Fl6jlUZm03QnCff7sT+xch6lHapHYv5Yb2K3x7tesAzQDmQgXYxtPVnMdW0/19urFb/pdY8zfsVaq/iBwNvoV3DV4K2/6aTVXtDZY32AEuoaw7ayZSu8vbNT1fX1ELRfqef0Tbl5mG7+XkT2u/7PdpRyJ3cKOfTnGMVbMeGjM26vPqKglfQqgNYczRQaluKVvbkpgbabkJbdbcu7bIaeN9BLLX3W7yDtsocVRPLbODhWn0Goq1qn0K7gNrM3ip+7YHzEdrJiWFol8F8WPPc7AjaH9wQoC3wLNoAMw/Q49jfDzK5ZjpXGS2p/S/wP2h/oL2Bz7BNatlom0c90ZLEarQz9s1bNM01VqHu2JCxacvjSW0z9pcktZdq9jRloPwe7TqyEDvztdf2CjfqUQUBZdiu+joaOBHYXu7UkHi0paBZQwOnV838e1i131HzWmjN8yPAQqv2X9W0mys3+ENS20zjxlrvmnbrC7FHcSOpmceYdYmoALQF4Z01z5tzrLqS1PxxbHr8QMGTNL4cTGM1Vxkhsx5on+ubetqnoS3VL6F92WtwrWzLrTXxfGf12mmrNjNHZY38oQTRkzRurHVDu27R+vuz/i3NFSoKuZEgq9HW2Ho0MebGjFVX9EDGpoU3HCiwx9nSLlOov7SLvTbr0i6xuFZG6Du01ffedtq6olUffR7tDy0AWIDtyc31lXsxO1szfYTVa32s2pzhNaVevFAB2j4m67HUy+r/36P9Rp2xTZIKjhd8nhqrrvgOGZsW3prUjqCVBjaXOXnBqs28U/+PwCe13ueozWw9kAxE49oh6x9q5r0JrbRyB7RqqQ+jDWrzpso1tMPhC2q9vwjoT/1XcXyLts/nVbTBdyuwFm2fX5GTMf4V7QLi2n2MRttf5M++QRsTr6CtMfRCq0ph9gNa7bDNQCTafqG70L7TIAfz9eRYdZaMTSvemtRS0JaYhWg/lvWHnoy2nf4/1D1q5KjN7K9oS6Y8bqxCO2sW2hHUXWg/9CBuVE5NRlsi/oxWV6r2D/Ui8CDakn0/9k1H20Q4irbTuBDtfgfOOoT2x/uQ1WvD0TYdPnBhPkY1HW1H/Ddo42pLrfYn0NaY3kfblFqHluQcnUrhybHqChmbDhi99JBepV2aiztLvXjjgQLhu9w5NqWeWg0F7QhNAdp1fMIxSWrCW0k9tRpS2kUIg/PWfWqe0gZtR+f7DUwnlS5Ec5Gx1gyMvPnpLHdWE/BlsvnpeTLWGserq3R4G3+rdOHLZKyJOvxt89MZUulCNBcZax7gDUntCPDvaEuon9Eu57C+6NxRhQHz+1eiXXB7Ee1UjfiaaX+pme9Aq+kdVWIA7eTEI3bi/BzbG0gI3yNjzU81d5WOI8BPwANo19mloJ39XPs6sfoqDBxBO6s5umaaSLQzp4ehFdG7B/iT1fQNVWJw94W3vszb96nJWPNfXl2lw7z0tHYcrXSKPbUrDBxBK3Ni1hPtzOc7qcuZSgwy0G7wxqS2GRlrwgeqdHxr57m5ioAzFQZ+sPr/GWAG2hLzINr1cP9S0+ZMJQZ/qHThy55ExppwwBv2qcGNAWDWC+2sf2cqDEDdjP0uWmXRIWjF7P4X7QJlZyoxSKULY5OxZnDektRigfuBm4EktKXjX3GuwkBto9E2MfqgXQoVaDUfZyoxSKULY5Ox5of0OFCQBuxDO6J0GO0ERLMktOJ5V4G/Ay9jewb2EbQKBWat0KoSnEK7LOoIMMmq/Wa0zYVv0DYzap/8SM1rj1g9Hw6cxHsWAs3FG/epWZOx5r+8+oL22gPFG7izmoAv8/ak5ioZa8YhF7S76ENszxMar1cgwvBkrLmZrOIKIQzFG9bU7B39EcITZKz5AVlTE0IYiiQ1IYShSFITQhiKJDUhhKFIUhNCGIqjo5/+XtJbaP6nGfrYWvMQosnsJbVP0W5cKgTAWQ/PX8aaEEIIIYQQQgghhBBCCCGEcI//D/j4if/pr/ICAAAAAElFTkSuQmCC;" vertex="1" parent="1">
                    <mxGeometry x="80" y="378" width="309" height="331" as="geometry"/>
                </mxCell>
                <mxCell id="9" value="" style="shape=image;verticalLabelPosition=bottom;labelBackgroundColor=default;verticalAlign=top;aspect=fixed;imageAspect=0;image=data:image/png,iVBORw0KGgoAAAANSUhEUgAAAKgAAACECAYAAAAEJWD5AAAABmJLR0QA/wD/AP+gvaeTAAARX0lEQVR4nO2dfUxUR9+GL6CKWGwJuAiYF2OrRAgxfiCmirZQla1YAUENNak1UhACFd6kwCYqugQFQ16hGht0a9IYtX36YClWu0QtKDYGlRgpErXUqhVWWJZiQ1SKyPuHD+dxhV0W+dizMFeyiTszZ85vzrmdM3P2ZgYEAoFAIBAIBAKBQCBh10vaO8D/DncgAgHwf8DFFxNe66XQ/wDR77777rBEJBAAnDt3DuA7LBAoANu3bx/aiASCFwgODu413X6Y4xAI+oUQqEDWCIEKZI0QqAxpaWkhODiYhw8fWjsUqyMEagMkJiZy8uTJAZexRUzO4q1BWloaly9fNkqbN28eu3fvtlJEz7lx4waHDx+mpqaG9vZ2Jk+ezJIlS1i1ahWOjo5Dfv79+/cbfY+PjycyMhKlUmmyzEhBVgIFiIqKIikpydphSFy6dIktW7YQGRlJQkICCoWChoYGzp49y8WLF3nvvfesHeKIRnYCNcXq1avJyMhg7ty5AOj1etasWcOJEyeora0lPT29xzF5eXl0dnaazKuvr6e4uJhDhw5J6ffv32f9+vUcPXoUd3d39uzZw/Lly0lISJDKTJ06ldjYWOl7a2sr+/bto6qqCoDAwECSkpKYMGECALGxsSxYsICamhpu3ryJq6srmzdvJiAgAACDwUBeXh7V1dUoFAoiIiKMYk1MTCQsLIywsDDUajW3bt0iNzeX3NxcfH192b9/v1GZwYhJLoyIMWhgYCBlZWXSZ8OGDUyfPh0/Pz+zeUuXLqWxsZGamhqprhMnThAQEMCkSZO4d+8eDx48YNmyZWbPv337dtra2tBoNBQWFqLX68nOzjYqU1paSlxcHMePHyc0NJTs7Gy6uroAUKvVjB07liNHjrBz5060Wq3Jc23btg0fHx/S09MpKysz+WgfaExyQXYCLSoqIjg4WPpcuHChX8eXlpai1WrJycnBycnJbJ6TkxPLli2jpKQEgI6ODrRaLStWrACe90IAEydONHk+nU7HtWvXSElJwc3NDXd3d5KTk6msrMRgMEjloqOjmTFjBo6OjoSHh9Pa2orBYKChoYHq6mpSU1NxcXHBy8uLuLi4frV5sGOSE7ITaFRUlFGPFxQUZPGxV65cobCwkJycHFxdXS3Ki4iI4Ny5c/z999+Ul5fj4ODAO++8A4CLiwsAzc3NJs/Z1NSEg4MDHh4eUtrkyZOB58OQbrrrAqSJVXt7O3q9nnHjxhnle3l5WdzmoYhJTshOoKZwdHQ0unjdvVs3dXV1ZGdno1ar8fb2tjhvypQp+Pr6otVqKSkpQalU8tprz4fm3t7eeHh4cPr0aZNxubu709nZSVNTk5RWX18PgEKh6LNdCoWCJ0+eGLVHp9OZPcbe3vxtG2hMcsJmBDpt2jS0Wi1tbW00NjZSWFgo5TU2NqJSqUhNTcXf39/oOHN53URERHDs2DGuX78uTTIA7OzsSE1N5dSpUxw4cID79+/T3t7OnTt30Gg0lJeX4+npycyZM8nPz8dgMNDU1MTevXuZP38+bm5ufbbLy8sLf39/CgoKaG1tRafTceDAAbPHuLq6cvv2bTo7O3vNH2hMcsJmBBofH8/Dhw+Jjo5GpVKxaNEiKa+iooLm5mYyMzONxq9VVVVm87oJCgrC3t6eWbNmSY/CbgIDAykoKODu3bskJiYSHh5OVlYWzs7O0lAgMzMTJycnNm7cSHx8PBMnTkSlUlnctszMTB4/fsy6detQqVSEhoaaLR8TE0NlZSWhoaEkJiaarHMgMcmF3gzLa4Bvy8rKhjsWq9HR0UFUVBQpKSmEhIRYO5xRyX/sdmuBf72YbjM96FDR1dVFcXExjo6OLF682NrhCF7CZl7UDxVKpRJnZ2fS0tKkyZFAPoz6O1JaWmrtEARmGPWPeIG8EQIVyBohUIGsEQIVyBqTk6Ty8vJhDEMgsJw1QJf4iI8VPmt4CZM96Gj6JUlgfcTCDQKbRAhUIGuEQAWyRghUIGuEQAWyRghUIGuEQAWyRghUIGuEQAWyRghUIGuEQAWyRghUIGuEQAWyRghUIGuEQAWyRghUIGuEQAWyRghUIGuEQAWyRghUIGuEQAWyRghUIGuEQAWyxuTfxZv6O2WBYDgxKdDMzMzhjEMwytmxY0ev6SYFKvagFAwnpgQqxqACWSMEKpA1QqACWSMEKhNaWloIDg7m4cOHVo3j6tWrRpuDZWRkcO7cOavFIwQqUxITEzl58uSAy/SXgwcPsm7dOun7Rx99hEajsdo23YO+DU1LSwurV6/m7NmzFpVPS0vj8uXLRmnz5s1j9+7dgx1av7hx4waHDx+mpqaG9vZ2Jk+ezJIlS1i1apW0M/BQ8vI+8PHx8URGRqJUKk2WGSi//fYb9fX1zJ8/X0qbOXMmT58+paqqioCAgEE9nyXIYp+kqKgokpKSrB2GxKVLl9iyZQuRkZEkJCSgUChoaGjg7NmzXLx4ccS+gquoqGDOnDk9NjQLCAigoqJi9ArUFKtXryYjI4O5c+cCz/c6X7NmDSdOnKC2tpb09PQex+Tl5dHZ2Wkyr76+nuLiYg4dOiSl379/n/Xr13P06FHc3d3Zs2cPy5cvJyEhQSozdepUYmNjpe+tra3s27dP2pQ2MDCQpKQkJkyYAEBsbCwLFiygpqaGmzdv4urqyubNm6WbbDAYyMvLo7q6GoVCQUREhFGsiYmJhIWFERYWhlqt5tatW+Tm5pKbm4uvry/79+83KjMYMdXW1jJ79uwe183Hx4eSkhKz92qosNkxaGBgIGVlZdJnw4YNTJ8+HT8/P7N5S5cupbGxkZqaGqmuEydOEBAQwKRJk7h37x4PHjxg2bJlZs+/fft22tra0Gg0FBYWotfryc7ONipTWlpKXFwcx48fJzQ0lOzsbGksp1arGTt2LEeOHGHnzp1otVqT59q2bRs+Pj6kp6dTVlZm8tE+0Jiam5txcXHpUa+LiwvNzc1mr8dQMSgCzcnJkba5joqK4tmzZ0ZbX3/11Vdmjy8qKjIqf+HChX6dv7S0FK1WS05ODk5OTmbznJycWLZsmdQjdHR0oNVqWbFiBfC8FwKYOHGiyfPpdDquXbtGSkoKbm5uuLu7k5ycTGVlJQaDQSoXHR3NjBkzcHR0JDw8nNbWVgwGAw0NDVRXV5OamoqLiwteXl7ExcX1q82DHZNcGZRHfEZGBhkZGUD/J0kwsDHolStXKCwsJD8/H1dXV4vyIiIiiIuLIykpicrKShwcHKS937t7kObmZtzd3Xs9Z1NTEw4ODnh4eEhp3fvM6/V63NzcjOoCpIlVe3s7zc3NjBs3zijfy8vrldo/WDEBuLm5Sf9BX6S1tdXsf9ihRNaPeEdHR+niAT0uXl1dHdnZ2ajVary9vS3OmzJlCr6+vmi1WkpKSlAqldLEwNvbGw8PD06fPm0yLnd3dzo7O2lqapLS6uvrAVAoFH22S6FQ8OTJE6P26HQ6s8fY25u/VQONCcDPz4+6uroe6bdu3cLX19eiOgYbWQt02rRpaLVa2traaGxspLCwUMprbGxEpVKRmpqKv7+/0XHm8rqJiIjg2LFjXL9+XZpkANjZ2ZGamsqpU6c4cOAA9+/fp729nTt37qDRaCgvL8fT05OZM2eSn5+PwWCgqamJvXv3Mn/+fKmnMoeXlxf+/v4UFBTQ2tqKTqfjwIEDZo9xdXXl9u3bdHZ29po/0JgAFi1axNWrV3uco6qqisWLF1tUx2Aja4HGx8fz8OFDoqOjUalULFq0SMqrqKigubmZzMxMo/FrVVWV2bxugoKCsLe3Z9asWdKjsJvAwEAKCgq4e/cuiYmJhIeHk5WVhbOzszQUyMzMxMnJiY0bNxIfH8/EiRNRqVQWty0zM5PHjx+zbt06VCoVoaGhZsvHxMRQWVlJaGio0S89L9c5kJh8fHzw8vKisrJSSvv1119xcHCQ3qQMN3a9pK0Bvh3pG3l1dHQQFRVFSkoKISEh1g5HNly9epWDBw9KbwoyMjJQKpVD/u73Pwb5tcC/XkyX9XvQoaKrq4vi4mIcHR2t9uiSK7NnzzZ6jZWTk2PFaEapQJVKJc7OzqSlpfX41UQgL2Q9Bh0qSktLKSoqMvrN2ZYYTc6nUSnQkcZIdj5Z3c3UH4TzqXdGsvPJ5gZgwvkkD4bL+WRzAjWFcD6NTOeT7Megz549G3Adwvk0+DENl/PJ6m6mhoYGtm3bxsqVK4mJiUGj0fDnn3/y5MkTfvzxR7755huj8sL5NLqcT1Z3M505c4bQ0FAyMjLQ6XScOnWK1NRUnj59SmBgIJs2bTIqL5xPo8v5ZPUx6Mcffyz9++233yY5OZnk5OR+12Op8ykrK8uk86m3vBedTxUVFSadT35+fr3G9aLLqFvEr+p86hbMYDqfXiUmGD7nk+zHoJYinE//ZSQ5n0aMQIXz6b+MJOfTqHUz9QfhfOqdwXQ+CTfTKyKcT6YZDueTEGgfCOeTdRFXvA9KS0utHcKoZsRMkkwxFC6eV0Fui3LZCiNeoHJBboty2QqDLtCWlhbef//9wa5WNsTHx5v9Lbw3+rKmCUwjetBhoC9rmsA0Vhfo48eP2bt3L2vXrmXFihWoVCoaGxsB+P777/n000+Nyut0OkJCQnjw4AEAKpWK4OBgQkJCiImJ4fDhw2Yfm6tXrzbqtfR6PcHBwbS1tfVZ34tWtuDgYGlMaa4N8NyaNm3atB6x+Pj4UFtb+yqXbdRg9Vn8rl27+Oeff8jPz+fNN9/k66+/ZuvWrRQWFrJkyRK+/PJL6urqpBus1WqZNWuWZHTYtWsX8NyW9/vvv7Njxw68vLxeeZhhrr5t27ZRX1/fw61urg12dnayXJTLVrCq3U6v11NRUcHnn3+Op6cn48ePZ9OmTdTX1/PHH38wYcIEFi5cyE8//QQ8f2leWlrK8uXLezbE3p7p06ezatUqfvnllwG3ydL6+mqDYGBY1W7X7cqJjo7ukffgwQPeeustPvjgA7Kzs0lISKC6upq2tjaj39nLy8s5evSo5CEFTJo+LKG/9VnSBjkuymUrWPUR7+HhgZ2dHcXFxbzxxhu9lpk3bx5jx47l4sWLVFRUEBISInkT//rrL7KystixYwdz5szBycmJoqIifv75Z5PnNGfLs6S+l61slrRBjoty2QpWnSS5u7uzcOFCcnJyJKvajRs32Lp1Kx0dHcBzS1toaChFRUWcP3/e6PHe3t5OV1cXr7/+OmPGjKG2tpbvvvvO7DnN2fIsqe9lK5slbZDjoly2gtVn8SqVCm9vb9LS0oiIiOCLL75AqVQyZswYqYxSqeTatWt4enoyY8YMKd3Dw4P4+HiysrJYvnw5+/fv7/OGm7PlWVJfb1a2vtogx0W5bAVhtxsmrLUol61gym4nBCqQBaYEavVHvEBgDiFQgawZcQIdrpXfhH1ueBhxAh0uhH1ueBj1djthn5M3ogd9BYR9bviwukD7sr/Fxsai0Wj47LPPCAsLIy4uzmgxL4PBgEqlIiwsjE8++YTz588b1S/sc7aN1e12llBSUoJarcbHx4cffviB9PR0jhw5gouLC2q1GhcXF44cOcKjR49Qq9VGxwr7nG1j9dXtLGHlypXMmjWL8ePHExMTg0Kh4MKFC/1a+U3Y52wTq69uZwmenp49vuv1evR6fZ8rvwn7nG1j9Ud8X6vSQc/V3HQ6HQsXLuxz5Tdhn7N9rD5JMmd/66akpIRr167x6NEjvv32W/R6PUFBQX2u/Cbsc7aP1QVqzv7WzYcffohGoyE6OpozZ86wa9cuqcc0t/KbsM/ZPrJ3M8XGxrJ27VqWLl1q7VCMEPa5wUWsbjfIyG1Py5GK1R/xAoE5ZN+DajQaa4cgsCKiBxXIGiFQgawRAhXIGiFQgawxOUnavn37MIYhEPRObwL9E/i3+PsagRX409oBCAQCgUAgEAgEAoGs+X/sfF0ug9y8HQAAAABJRU5ErkJggg==;" vertex="1" parent="1">
                    <mxGeometry x="456.5" y="570" width="168" height="132" as="geometry"/>
                </mxCell>
                <mxCell id="10" value="" style="shape=image;verticalLabelPosition=bottom;labelBackgroundColor=default;verticalAlign=top;aspect=fixed;imageAspect=0;image=data:image/png,iVBORw0KGgoAAAANSUhEUgAAAKgAAACECAYAAAAEJWD5AAAABmJLR0QA/wD/AP+gvaeTAAARX0lEQVR4nO2dfUxUR9+GL6CKWGwJuAiYF2OrRAgxfiCmirZQla1YAUENNak1UhACFd6kwCYqugQFQ16hGht0a9IYtX36YClWu0QtKDYGlRgpErXUqhVWWJZiQ1SKyPuHD+dxhV0W+dizMFeyiTszZ85vzrmdM3P2ZgYEAoFAIBAIBAKBQCBh10vaO8D/DncgAgHwf8DFFxNe66XQ/wDR77777rBEJBAAnDt3DuA7LBAoANu3bx/aiASCFwgODu413X6Y4xAI+oUQqEDWCIEKZI0QqAxpaWkhODiYhw8fWjsUqyMEagMkJiZy8uTJAZexRUzO4q1BWloaly9fNkqbN28eu3fvtlJEz7lx4waHDx+mpqaG9vZ2Jk+ezJIlS1i1ahWOjo5Dfv79+/cbfY+PjycyMhKlUmmyzEhBVgIFiIqKIikpydphSFy6dIktW7YQGRlJQkICCoWChoYGzp49y8WLF3nvvfesHeKIRnYCNcXq1avJyMhg7ty5AOj1etasWcOJEyeora0lPT29xzF5eXl0dnaazKuvr6e4uJhDhw5J6ffv32f9+vUcPXoUd3d39uzZw/Lly0lISJDKTJ06ldjYWOl7a2sr+/bto6qqCoDAwECSkpKYMGECALGxsSxYsICamhpu3ryJq6srmzdvJiAgAACDwUBeXh7V1dUoFAoiIiKMYk1MTCQsLIywsDDUajW3bt0iNzeX3NxcfH192b9/v1GZwYhJLoyIMWhgYCBlZWXSZ8OGDUyfPh0/Pz+zeUuXLqWxsZGamhqprhMnThAQEMCkSZO4d+8eDx48YNmyZWbPv337dtra2tBoNBQWFqLX68nOzjYqU1paSlxcHMePHyc0NJTs7Gy6uroAUKvVjB07liNHjrBz5060Wq3Jc23btg0fHx/S09MpKysz+WgfaExyQXYCLSoqIjg4WPpcuHChX8eXlpai1WrJycnBycnJbJ6TkxPLli2jpKQEgI6ODrRaLStWrACe90IAEydONHk+nU7HtWvXSElJwc3NDXd3d5KTk6msrMRgMEjloqOjmTFjBo6OjoSHh9Pa2orBYKChoYHq6mpSU1NxcXHBy8uLuLi4frV5sGOSE7ITaFRUlFGPFxQUZPGxV65cobCwkJycHFxdXS3Ki4iI4Ny5c/z999+Ul5fj4ODAO++8A4CLiwsAzc3NJs/Z1NSEg4MDHh4eUtrkyZOB58OQbrrrAqSJVXt7O3q9nnHjxhnle3l5WdzmoYhJTshOoKZwdHQ0unjdvVs3dXV1ZGdno1ar8fb2tjhvypQp+Pr6otVqKSkpQalU8tprz4fm3t7eeHh4cPr0aZNxubu709nZSVNTk5RWX18PgEKh6LNdCoWCJ0+eGLVHp9OZPcbe3vxtG2hMcsJmBDpt2jS0Wi1tbW00NjZSWFgo5TU2NqJSqUhNTcXf39/oOHN53URERHDs2DGuX78uTTIA7OzsSE1N5dSpUxw4cID79+/T3t7OnTt30Gg0lJeX4+npycyZM8nPz8dgMNDU1MTevXuZP38+bm5ufbbLy8sLf39/CgoKaG1tRafTceDAAbPHuLq6cvv2bTo7O3vNH2hMcsJmBBofH8/Dhw+Jjo5GpVKxaNEiKa+iooLm5mYyMzONxq9VVVVm87oJCgrC3t6eWbNmSY/CbgIDAykoKODu3bskJiYSHh5OVlYWzs7O0lAgMzMTJycnNm7cSHx8PBMnTkSlUlnctszMTB4/fsy6detQqVSEhoaaLR8TE0NlZSWhoaEkJiaarHMgMcmF3gzLa4Bvy8rKhjsWq9HR0UFUVBQpKSmEhIRYO5xRyX/sdmuBf72YbjM96FDR1dVFcXExjo6OLF682NrhCF7CZl7UDxVKpRJnZ2fS0tKkyZFAPoz6O1JaWmrtEARmGPWPeIG8EQIVyBohUIGsEQIVyBqTk6Ty8vJhDEMgsJw1QJf4iI8VPmt4CZM96Gj6JUlgfcTCDQKbRAhUIGuEQAWyRghUIGuEQAWyRghUIGuEQAWyRghUIGuEQAWyRghUIGuEQAWyRghUIGuEQAWyRghUIGuEQAWyRghUIGuEQAWyRghUIGuEQAWyRghUIGuEQAWyRghUIGuEQAWyxuTfxZv6O2WBYDgxKdDMzMzhjEMwytmxY0ev6SYFKvagFAwnpgQqxqACWSMEKpA1QqACWSMEKhNaWloIDg7m4cOHVo3j6tWrRpuDZWRkcO7cOavFIwQqUxITEzl58uSAy/SXgwcPsm7dOun7Rx99hEajsdo23YO+DU1LSwurV6/m7NmzFpVPS0vj8uXLRmnz5s1j9+7dgx1av7hx4waHDx+mpqaG9vZ2Jk+ezJIlS1i1apW0M/BQ8vI+8PHx8URGRqJUKk2WGSi//fYb9fX1zJ8/X0qbOXMmT58+paqqioCAgEE9nyXIYp+kqKgokpKSrB2GxKVLl9iyZQuRkZEkJCSgUChoaGjg7NmzXLx4ccS+gquoqGDOnDk9NjQLCAigoqJi9ArUFKtXryYjI4O5c+cCz/c6X7NmDSdOnKC2tpb09PQex+Tl5dHZ2Wkyr76+nuLiYg4dOiSl379/n/Xr13P06FHc3d3Zs2cPy5cvJyEhQSozdepUYmNjpe+tra3s27dP2pQ2MDCQpKQkJkyYAEBsbCwLFiygpqaGmzdv4urqyubNm6WbbDAYyMvLo7q6GoVCQUREhFGsiYmJhIWFERYWhlqt5tatW+Tm5pKbm4uvry/79+83KjMYMdXW1jJ79uwe183Hx4eSkhKz92qosNkxaGBgIGVlZdJnw4YNTJ8+HT8/P7N5S5cupbGxkZqaGqmuEydOEBAQwKRJk7h37x4PHjxg2bJlZs+/fft22tra0Gg0FBYWotfryc7ONipTWlpKXFwcx48fJzQ0lOzsbGksp1arGTt2LEeOHGHnzp1otVqT59q2bRs+Pj6kp6dTVlZm8tE+0Jiam5txcXHpUa+LiwvNzc1mr8dQMSgCzcnJkba5joqK4tmzZ0ZbX3/11Vdmjy8qKjIqf+HChX6dv7S0FK1WS05ODk5OTmbznJycWLZsmdQjdHR0oNVqWbFiBfC8FwKYOHGiyfPpdDquXbtGSkoKbm5uuLu7k5ycTGVlJQaDQSoXHR3NjBkzcHR0JDw8nNbWVgwGAw0NDVRXV5OamoqLiwteXl7ExcX1q82DHZNcGZRHfEZGBhkZGUD/J0kwsDHolStXKCwsJD8/H1dXV4vyIiIiiIuLIykpicrKShwcHKS937t7kObmZtzd3Xs9Z1NTEw4ODnh4eEhp3fvM6/V63NzcjOoCpIlVe3s7zc3NjBs3zijfy8vrldo/WDEBuLm5Sf9BX6S1tdXsf9ihRNaPeEdHR+niAT0uXl1dHdnZ2ajVary9vS3OmzJlCr6+vmi1WkpKSlAqldLEwNvbGw8PD06fPm0yLnd3dzo7O2lqapLS6uvrAVAoFH22S6FQ8OTJE6P26HQ6s8fY25u/VQONCcDPz4+6uroe6bdu3cLX19eiOgYbWQt02rRpaLVa2traaGxspLCwUMprbGxEpVKRmpqKv7+/0XHm8rqJiIjg2LFjXL9+XZpkANjZ2ZGamsqpU6c4cOAA9+/fp729nTt37qDRaCgvL8fT05OZM2eSn5+PwWCgqamJvXv3Mn/+fKmnMoeXlxf+/v4UFBTQ2tqKTqfjwIEDZo9xdXXl9u3bdHZ29po/0JgAFi1axNWrV3uco6qqisWLF1tUx2Aja4HGx8fz8OFDoqOjUalULFq0SMqrqKigubmZzMxMo/FrVVWV2bxugoKCsLe3Z9asWdKjsJvAwEAKCgq4e/cuiYmJhIeHk5WVhbOzszQUyMzMxMnJiY0bNxIfH8/EiRNRqVQWty0zM5PHjx+zbt06VCoVoaGhZsvHxMRQWVlJaGio0S89L9c5kJh8fHzw8vKisrJSSvv1119xcHCQ3qQMN3a9pK0Bvh3pG3l1dHQQFRVFSkoKISEh1g5HNly9epWDBw9KbwoyMjJQKpVD/u73Pwb5tcC/XkyX9XvQoaKrq4vi4mIcHR2t9uiSK7NnzzZ6jZWTk2PFaEapQJVKJc7OzqSlpfX41UQgL2Q9Bh0qSktLKSoqMvrN2ZYYTc6nUSnQkcZIdj5Z3c3UH4TzqXdGsvPJ5gZgwvkkD4bL+WRzAjWFcD6NTOeT7Megz549G3Adwvk0+DENl/PJ6m6mhoYGtm3bxsqVK4mJiUGj0fDnn3/y5MkTfvzxR7755huj8sL5NLqcT1Z3M505c4bQ0FAyMjLQ6XScOnWK1NRUnj59SmBgIJs2bTIqL5xPo8v5ZPUx6Mcffyz9++233yY5OZnk5OR+12Op8ykrK8uk86m3vBedTxUVFSadT35+fr3G9aLLqFvEr+p86hbMYDqfXiUmGD7nk+zHoJYinE//ZSQ5n0aMQIXz6b+MJOfTqHUz9QfhfOqdwXQ+CTfTKyKcT6YZDueTEGgfCOeTdRFXvA9KS0utHcKoZsRMkkwxFC6eV0Fui3LZCiNeoHJBboty2QqDLtCWlhbef//9wa5WNsTHx5v9Lbw3+rKmCUwjetBhoC9rmsA0Vhfo48eP2bt3L2vXrmXFihWoVCoaGxsB+P777/n000+Nyut0OkJCQnjw4AEAKpWK4OBgQkJCiImJ4fDhw2Yfm6tXrzbqtfR6PcHBwbS1tfVZ34tWtuDgYGlMaa4N8NyaNm3atB6x+Pj4UFtb+yqXbdRg9Vn8rl27+Oeff8jPz+fNN9/k66+/ZuvWrRQWFrJkyRK+/PJL6urqpBus1WqZNWuWZHTYtWsX8NyW9/vvv7Njxw68vLxeeZhhrr5t27ZRX1/fw61urg12dnayXJTLVrCq3U6v11NRUcHnn3+Op6cn48ePZ9OmTdTX1/PHH38wYcIEFi5cyE8//QQ8f2leWlrK8uXLezbE3p7p06ezatUqfvnllwG3ydL6+mqDYGBY1W7X7cqJjo7ukffgwQPeeustPvjgA7Kzs0lISKC6upq2tjaj39nLy8s5evSo5CEFTJo+LKG/9VnSBjkuymUrWPUR7+HhgZ2dHcXFxbzxxhu9lpk3bx5jx47l4sWLVFRUEBISInkT//rrL7KystixYwdz5szBycmJoqIifv75Z5PnNGfLs6S+l61slrRBjoty2QpWnSS5u7uzcOFCcnJyJKvajRs32Lp1Kx0dHcBzS1toaChFRUWcP3/e6PHe3t5OV1cXr7/+OmPGjKG2tpbvvvvO7DnN2fIsqe9lK5slbZDjoly2gtVn8SqVCm9vb9LS0oiIiOCLL75AqVQyZswYqYxSqeTatWt4enoyY8YMKd3Dw4P4+HiysrJYvnw5+/fv7/OGm7PlWVJfb1a2vtogx0W5bAVhtxsmrLUol61gym4nBCqQBaYEavVHvEBgDiFQgawZcQIdrpXfhH1ueBhxAh0uhH1ueBj1djthn5M3ogd9BYR9bviwukD7sr/Fxsai0Wj47LPPCAsLIy4uzmgxL4PBgEqlIiwsjE8++YTz588b1S/sc7aN1e12llBSUoJarcbHx4cffviB9PR0jhw5gouLC2q1GhcXF44cOcKjR49Qq9VGxwr7nG1j9dXtLGHlypXMmjWL8ePHExMTg0Kh4MKFC/1a+U3Y52wTq69uZwmenp49vuv1evR6fZ8rvwn7nG1j9Ud8X6vSQc/V3HQ6HQsXLuxz5Tdhn7N9rD5JMmd/66akpIRr167x6NEjvv32W/R6PUFBQX2u/Cbsc7aP1QVqzv7WzYcffohGoyE6OpozZ86wa9cuqcc0t/KbsM/ZPrJ3M8XGxrJ27VqWLl1q7VCMEPa5wUWsbjfIyG1Py5GK1R/xAoE5ZN+DajQaa4cgsCKiBxXIGiFQgawRAhXIGiFQgawxOUnavn37MIYhEPRObwL9E/i3+PsagRX409oBCAQCgUAgEAgEAoGs+X/sfF0ug9y8HQAAAABJRU5ErkJggg==;" vertex="1" parent="1">
                    <mxGeometry x="640" y="570" width="168" height="132" as="geometry"/>
                </mxCell>
                <mxCell id="11" value="" style="shape=image;verticalLabelPosition=bottom;labelBackgroundColor=default;verticalAlign=top;aspect=fixed;imageAspect=0;image=data:image/png,iVBORw0KGgoAAAANSUhEUgAAARQAAAHdCAYAAADcl4YFAAAABmJLR0QA/wD/AP+gvaeTAAAgAElEQVR4nO2deXhV1dX/PzcBQhiEIgQICDKlEhwQEAUUSSwSmcIojfC+VhlCkfkHCSkFRKSJNa1oLBKNVPFV1BTEAJIoEm1woEKdEFEQpBCmgJAyhEBIfn/sey93Hs/NndbneXjIPfucvdc+99x19t7nrO8CQRAEQRAEQRAEQRAEQRAEodbQ2djWB5hb24YIghB0/BX4zHRDHRs73QCMuffee2vFIkEQgo+PP/4YIB8XHAoAjz/+uG8tEgQhaElISLC5PaKW7RAEIYQRhyIIgmaIQxEEQTPEoQg+YdKkSXzwwQch255gG3EoQlgwbdo0Nm/e7G8zQh67T3kE10hLS+OLL74w23bHHXfw5z//2U8WXbNp3rx5DBkyxLj9wIEDTJw4kfr167Nlyxa/2ecPVq5c6W8TwgJxKBowevRopk+f7m8zzOjYsSPvvvuumUMpKCigY8eOHD161I+WCaGMOBQfMnbsWBYsWEDPnj0BKCsr48EHH2Tjxo3s2bOH9PR0q2Oys7O5evWq3bLS0lI2bNjA6tWrjduPHDnCww8/zBtvvEHLli0B6NOnDx988AF79+7lpptuoqKigg8//JBJkyaxatUqs3orKirIy8tj+/btXLhwgVtuuYXZs2cb65o0aRI9evRg79697Nu3j5YtW5Kens63335Lfn4+Fy9eJDExkblz56LTXXv5+tChQ8ycOZOffvqJNm3aMHPmTG6++WaX27zrrrvYvXs3P/74I/PmzePs2bPk5+dz5swZ4uLimDFjBl26dDG2d/jwYebOncsPP/xAs2bNmDVrFr169QLUlGfIkCFGB2uo/5tvvrFpn+AZsobiJ3r37k1xcbHx3yOPPEKXLl2Ij493WDZw4EBOnDjB7t27jXVt3LiRXr16GX+MADqdjmHDhrFhwwYA3n//fW699VZiYmKsbMnMzKS0tJQVK1bw9ttv065dOxYtWkRNTY1xn5KSEqZPn8769euJj49n3rx5HD58mNWrV5Obm8unn35qeHvSSEFBAY8++ij5+fkkJCSQnp7O2bNnXW5zy5YtTJ48mU2bNhEXF8cLL7zAwoULKSgoYOrUqXz44Ydm7RUVFTFlyhTWr1/PoEGDWL58uVl9ljiyT/AMcSgasG7dOhISEoz/tm/f7tbxRUVFFBYWkpWVRXR0tMOy6Oho7r//fgoKCgC4cuUKhYWFDB061KreoUOHsn37ds6dO0dBQQHJyclW+5SVlVFSUsL8+fNp3bo1DRo0YOrUqZSWlnLw4EHjfqNGjSIuLs7YfkVFBY899hiNGzembdu29OjRg3379pnVPXz4cLp3706DBg1ISUmhRYsWbN++3eU2R44cSbdu3YiIiCAyMpI6derQoEED6tWrR3x8PFOnTjVrb8yYMdx0001ERUWRnJzM2bNnOX36tN3zbs8+wXNkyqMB3qyh7Ny5k9zcXFasWEGzZs1cKhsxYgRTpkxh+vTp7Nixg8jISPr06WNVd9OmTbnzzjvJzs7m0qVL3HHHHXz++edm+xw7dgxQP0ZLjh8/TseOHY11GahXrx5RUVHUr1/fbFtlZaXZ8a1bt7b6XFZW5nKbpqOp1q1bs2jRIlatWkV5eTmdOnVi9OjRdOrUyay/BqKiogCsbHLFPsFzxKH4kKioKLML2nI4vX//fpYvX86yZcto166dy2Xt27ena9euFBYWUlJSQlJSEnXq2P4qk5OTmTVrFlOnTjVb3zDQqlUrdDodGzZs4LrrrvO0qzYxOA7Tz/369XO5TUt7+/btS9++fampqWHr1q3MnDmT9evXG52HVvYJniNTHh/SuXNnCgsLOX/+PCdOnCA3N9dYduLECTIyMpgzZ47VQqCjMgMjRoxg7dq1fPfdd2ZPciy59dZbKS4uZty4cTbLY2Ji6NevH1lZWRw5coTKykr27t3LokWLuHLlige9vkZBQQFff/01Fy9e5K233qKsrIy7777bozZ37txJXl4epaWlVFVVUV1dzeXLl6murtbcPsFzZITiQ1JTU8nKymLMmDHExsaSnJzMrl27ALXIeerUKZYsWWJ2THZ2NgcPHrRbZnhidPfdd5OTk0P37t1p06aNV3ZmZGSwZs0a0tLSOHPmDB06dGD8+PHUrVvXq3qHDRtGXl6e8SlKZmamcVribpvdu3dn//79pKenc+rUKdq2bcuSJUus1py0sk/wDFsCSw8CbxUXF9e2LYIbXLlyhdGjRzN79mwSExP9bU7QMWnSJMaNG8fAgQP9bUpQopcvGAe8bbpdpjxBSE1NDRs2bCAqKor+/fv72xxBMCJTniAkKSmJRo0akZaWZncxVhD8gVyNQUhRUZG/TQh68vLy/G1CSCJTHkEQNEMciiAImiEORRAEzRCHIgiCZthdlP3oo49q0QxBEEIBuy+21bYhgiAEHVYvttkdocibsoIg2EMSfQmC4HPEoQiCoBniUARB0AxxKIIgaIbmDiU/P5/nnnsOgJycHN56Sx4YCUK4oHlw4J49e4wyenv27OHee+/VugkAfvvb3zJu3DhGjhxptn3UqFFMnDjRqGJmmogrOjqajh07MnnyZG677Ta3y00xiB2ZlkdFRdGmTRtSUlL4zW9+41I/0tLSaNeunU1NWssydxN4GY6fMmUKgwYNsmtDRESElYK8IHiC5iOU77//nvj4eKqqqjh48CC//vWvtW7CbUaPHk1xcTH/+Mc/iIuL4w9/+IOZvqur5ab/DMpppuWGxFp/+tOfzNTbtcSQwMsUQwIve9SrV8/M9v79+zN48GDjZ3EmglZo4lB27dplTCFx4sQJxo8fz8CBA6msrCQpKYmxY8dq0YzXNGjQgNTUVCoqKvjuu+/cLndGVFQUI0eORKfTceDAAS1MtqJPnz6Ul5ezd+9eAGMCr+HDh/ukPUFwB02mPD179qS4uJiioiI+//xzlixZwpo1a6ioqCA1NVWLJoKCyspKNm/ejE6n89nIzDSB14IFCxwm8BKE2kbTNZR///vfxqnAl19+yfjx47Ws3msuXrzIyy+/THR0NPHx8S6Xr1u3jnXr1pntu2HDBpo0aWJVXqdOHZ588knatm3rs34MHTqUCRMmGBN4paamcvXqVZ+1JwiuoolDMX0N9/333+cvf/kLAF999RUAq1evpkOHDlo0ZaROnTpUVVVZba+qqrJSTjf84OvXr0+HDh148skn+dWvfuVyubNEXobys2fP8swzz/Dqq6/Su3dvIiJ881TelQReguAPNHEoxcXFlJWVMXXqVNatW8c333zDCy+8wAsvvKBF9TZp3bo1paWlZtvKy8s5d+6cVUY4Vx2CtzRt2pT58+fz0EMP8d5779lMD6oVzhJ4CYI/0OwW+t133xmnCXv27LE5pdCSIUOG8P777/Ppp59y6dIlTp48yTPPPMONN95I165dfdq2Ixo1asS4ceN47bXXbI6gtMJZAi9B8AearaEYHhcb/vbV+ycGBgwYQGVlJatXr2bZsmU0bNiQ2267jaeeekpzJXhbayjp6ekkJSXZ3H/UqFHk5+ezZcsWhg0b5lH9q1ev9txgQfATkuhLEAS3kURfgiD4HL/l5Tl+/DgpKSk2y2677Ta+/vprm2WDBg1iwYIFvjRNMxz1MZj6IQiu4jeH0qpVq5BXhQuHPgqCKUE75amqqiIzM5PBgwfzyCOP+NscnzFt2jQ2b97sbzMEwSU0H6Hk5+dz7NgxZs6cSU5ODjExMT55tPnJJ5/www8/kJ+fT8OGDTWvXxAE99F8hGL6DsqePXt89k7I/v376dq1qzgTQQgggla+4MKFC1av2AuC4F+CUr4gIyODd955h40bN5KQkMDLL78MwNixY9m1a5dxv7KyMhISEjh//jz/+te/jDaa/tu1a5fDsoKCAh599FGz9o8cOcJ9993HiRMnHNr5zjvvMHnyZLNtx44dIzExkePHjxv7kpCQQGJiIikpKbz22mvU1NTYrdNRH0HJGeTk5DBu3DiGDh1KRkaGUzsFQSuCUr4gMzOTZ599lqtXrzJ37lyXjundu7fZE5c1a9awfft24uPjiY6OtlsWHx9Pbm4uu3fv5uabbwZg48aN9OrVi5YtWzps8ze/+Q0vvPAC+/fvp3PnzgAUFhbSvXt3WrVqZewLQHV1NT/99BNLly4lNjaW++67z/UTYkJmZiaXL19mxYoVNGnShFdffZVFixaRm5srMT+Cz9F0ymMpX2CqahZIFBUVUVhYSFZWFtHR0Q7LoqOjuf/++ykoKADgypUrFBYWuhT417hxY/r162eUZaypqaGoqIjBgwdb7RsREUGXLl0YNWoUn3zyiUf9Kisro6SkhPnz59O6dWsaNGjA1KlTKS0t9ZmCnCCYErTyBZ6yc+dOcnNzWbFiBc2aNXOpbMSIEUyZMoXp06ezY8cOIiMj6dOnj0vtPfDAAyxfvpzf//73fPPNN5w/f5577rnHWP7RRx/xxhtvcPjwYS5dugRgHAm5y7FjxwAYM2aMVdnx48cdykQKghYErXyBLaKioqisrDR+NtWFBfVkaPny5Sxbtox27dq5XNa+fXu6du1KYWEhJSUlJCUluRyAeMcdd1CvXj0+++wzSkpKSExMJCoqCoAzZ86wbNkyli5dSo8ePYiOjmbdunVs27bNoz62atUKnU7Hhg0buO6661yyTxC0JGjlC2zRuXNnCgsLOX/+PCdOnCA3N9dYduLECTIyMpgzZ47VCMBRmYERI0awdu1avvvuOzPFeWfodDoGDRrEunXr+Oc//2k23amsrKSmpoaGDRtSt25d9uzZQ35+vsd9jImJoV+/fmRlZXHkyBEqKyvZu3cvixYt4sqVKy7bLAieErTyBbZITU0lKyuLMWPGEBsbS3JysvGJSElJCadOnWLJkiVmx2RnZ3Pw4EG7ZYZ1oLvvvpucnBy6d+9OmzZt3LIrKSmJ119/nRtvvJGbbrrJuL1Vq1akpqaybNkyzp07R1xcHP3793cokO2oj6CeGq1Zs4a0tDTOnDlDhw4dGD9+vDxiF2oFkS9wkStXrjB69Ghmz55NYmKiv80RBL8i8gVeUFNTw4YNG4iKiqJ///7+NkcQAhaRL3CBpKQkGjVqRFpamtlirMgTCII5MuURBMFtZMojCILP0dyh5Ofn89xzzwGQk5PDW2+9pXUTgiAEKEErXyAIQuARtPIFgiAEHpo85dm1axfz5s0zfjbNaZyUlETz5s2dvgHqLpMmTaJv377s3r2bH374gWbNmjFr1ix69eoFqBe8Pv/8c3Q6HS1btmTw4MFMmDDBGHE7adIkevTowd69e9m3bx8tW7YkPT2db7/9lvz8fC5evEhiYiJz5841HlNRUUFeXh7bt2/nwoUL3HLLLcyePdtp1LEghAtBKV9goKioiKVLl9KhQwfy8/NZvnw569evR6fTuSQLUFJSwtKlS7nhhhvIyclh3rx5JCYmsnr1asrLy5k1axY9e/ZkwIABgEgDCIIzglq+YMyYMdx0001ERUWRnJzM2bNnOX36tNk+jmQBRo0aRVxcnFGioKKigscee4zGjRvTtm1bevTowb59+wCRBhAEVwhq+YKmTZsa/zZE8BoicV2RBTA9vl69ekRFRVG/fn2zbYb6RBpAEJwTUvIFBjyRBXCGSAMIgnNCSr7AgCeyAM4QaQBBcE5IyRcY8EQWwBVEGkAQHCOxPIIguI3E8giC4HNEvkAQBM3wm0Np1aoVMq0ShNBCoo0FQdCMoI02TktLIyEhgS+++MJse2pqqk0n9tprr5GQkMD7779vt67NmzebbT9w4AAJCQk88MADNve3lbrUFbuff/554+fKykoyMjKYPHmy8S1fR/UvXryYhQsXmtVZU1PD7Nmzefrpp522Lwi+RPMpz/fff8/kyZNrJdr4uuuuY9WqVfTs2ZOICPu+saamhvfee4/BgwdTUFDA/fffb7VPx44deffdd81SZBQUFNCxY0eOHj1qtf/o0aOZPn26V/aXl5ezYMECGjRowLPPPkuDBg2c1h8XF8ejjz7Ku+++S3JyMgBvvvkmp0+fJisryyt7BMFbgjJZuoGkpCQuXLhgTPVpj3/96180btyYOXPmcPz4cZuxN3369KG8vJy9e/cCKrL4ww8/ZPjw4T6x/dixY0yfPp02bdrw1FNPmTkTRzRu3Jg//OEPrFq1ikOHDrFv3z7WrFnDwoULzcIGBMEfaOJQDNHGCxYsYMCAARQXF/PII4/w29/+luLiYs2lCwzUq1ePyZMns3r1aioqKuzut3HjRsaOHUudOnUYMWIEmzZtstpHp9MxbNgwNmzYAKiYpFtvvZWYmBjN7T548CCPPfYYffv2ZeHChS5nITRw++23M2LECJ588kmWL1/OhAkTzPL9CIK/COpoY4DExERiYmJ48803bZafPn2affv2GQMYhw8fzscff2yWztPA0KFD2b59O+fOnaOgoMA4pbDFunXrrNY4ysvLXbJ57969VFZW8sADD9iVPXBW/8SJE7ly5QoNGjTgoYcecqldQfA1QR1tDGpkMW3aNObPn8+wYcOsyjdv3szJkycZOHCg2fbi4mKSkpLMtjVt2pQ777yT7OxsLl26xB133MHnn39us11v1lCSkpLQ6XTMmjWLp59+mri4OLfrr1OnDu3bt6dRo0aixSIEDCERbXzLLbfQu3dv8vLyzLbX1NSwefNmXnnlFdq3b2/cvmvXLv7+979bORSA5ORkZs2axdSpU332Q9XpdEyfPp3o6Gjmzp1LVlaW3ZzKghBMhEy0cWpqKtu2bTPqloBajAXMnAmoN3EPHDjAgQMHrOq59dZbKS4uZty4cb41GDVteeihh5g/fz7//ve/fd6eIPgazRyKZbRxt27dtKraJdq0aUNycjLnzp0zbisoKODOO++02rdOnTrcfvvtbNy40eP2bK1xFBYWul3PQw89xJQpU/jDH/7Ap59+qnn9glCbSLSxIAhuI9HGgiD4HIk21hBJni6EOxJtrCGh2CdBcAeZ8giCoBniUARB0AxxKIIgaIY4FEEQNEMciiAImmH3KY9pwJ8gCIIr2HUoS5YsqU07BEEIIpYuXWpzu12HMmDAAF/ZIghCkGPPocgaiiAImiEORRAEzRCHIgiCZohDCVAmTZrEBx98ENTtffnll0ybNs34ecGCBXz88ceatiEEFuJQBJeYNm2aVSI0Z7z00kuMHz/e+Pmhhx4iLy+Pmpoarc0TAgTNHcovv/zCfffd5/L+trLkpaWlaW2WW7ibSTAcWLlypVkSNGfs27eP0tJSM8W8W2+9laqqKpcyLArBid/kC0zRIguf1ribSVAwp6SkhB49eljlHOrVqxclJSX06tXLT5YJviQgHIo9xo4dy4IFC4z5fcrKynjwwQfZuHEje/bsIT093eqY7Oxsrl69arestLSUDRs2sHr1auP2I0eO8PDDD/PGG2/QsmVLQGUS/OCDD9i7dy833XSTMZPgpEmTWLVqlVm9FRUV5OXlsX37di5cuMAtt9zC7NmzjXVNmjSJHj16sHfvXvbt20fLli1JT0/n22+/JT8/n4sXL5KYmMjcuXPNlPYPHTrEzJkz+emnn2jTpg0zZ840quO70uZdd93F7t27+fHHH5k3bx5nz54lPz+fM2fOEBcXx4wZM+jSpYuxvcOHDzN37lx++OEHmjVrxqxZs4w//GnTpjFkyBCjgzXU/80339i0b8+ePdx+++1W30FcXBwFBQUOv3cheAnaNZTevXtTXFxs/PfII4/QpUsX4uPjHZYNHDiQEydOsHv3bmNdGzdupFevXsYfI7iXSTAzM5PS0lJWrFjB22+/Tbt27Vi0aJHZWkFJSQnTp09n/fr1xMfHM2/ePA4fPszq1avJzc3l008/tVqwLCgo4NFHHyU/P5+EhATS09M5e/asy21u2bKFyZMns2nTJuLi4njhhRdYuHAhBQUFTJ06lQ8//NCsvaKiIqZMmcL69esZNGgQy5cvd7je4ci+U6dO0bRpU6tjmjZtyqlTp+zWKQQ3mjiUrKws4/rH6NGjqa6uNlsTefnllx0eb6nwvn37drfaLyoqorCwkKysLKKjox2WRUdHc//99xvvkleuXKGwsJChQ4da1etKJsGysjJKSkqYP38+rVu3pkGDBkydOpXS0lKzHMqjRo0iLi7O2H5FRQWPPfYYjRs3pm3btvTo0YN9+/aZ1T18+HC6d+9OgwYNSElJoUWLFmzfvt3lNkeOHEm3bt2IiIggMjKSOnXq0KBBA+rVq0d8fDxTp041a2/MmDHcdNNNREVFkZyczNmzZzl9+rTd827PPiF80WTKs2DBAqNe6i+//MLYsWOt7n6O8GYNZefOneTm5rJixQqaNWvmUtmIESOYMmUK06dPZ8eOHURGRtKnTx+rul3JJGjIAzRmzBir448fP07Hjh2NdRmoV68eUVFRZsnN69WrZ5UetXXr1lafy8rKXG7TdDTVunVrFi1axKpVqygvL6dTp06MHj2aTp06mfXXQFRUFIDNlK3O7AO4/vrrjaMVU86ePUvz5s3t1ikENwG9hhIVFWV2QVteoPv372f58uUsW7aMdu3auVzWvn17unbtSmFhISUlJSQlJdlNWO4sk2CrVq3Q6XRs2LCB6667ztOu2sQ0aZnhc79+/Vxu09Levn370rdvX2pqati6dSszZ85k/fr1RuehlX0A8fHx7N+/3+qYH3/8ka5du3rUnhD4BPQaSufOnSksLOT8+fOcOHGC3NxcY9mJEyfIyMhgzpw5Vmk8HZUZGDFiBGvXruW7775z+DjUWSbBmJgY+vXrR1ZWFkeOHKGyspK9e/eyaNEirly54kGvr1FQUMDXX3/NxYsXeeuttygrK+Puu+/2qM2dO3eSl5dHaWkpVVVVVFdXc/nyZaqrqzW3D+Cee+7hyy+/5OrVq2bH7Nq1i/79+3vcphDYBPQIJTU1laysLMaMGUNsbCzJycnGdxhKSko4deqUlcxCdnY2Bw8etFtmeGJ09913k5OTQ/fu3WnTpo1XdmZkZLBmzRrS0tI4c+YMHTp0YPz48dStW9ereocNG0ZeXp7xKUpmZqZxWuJum927d2f//v2kp6dz6tQp2rZty5IlS6zWnLSyLy4ujtjYWHbs2EHfvn0B+Pbbb4mMjDR+B0LoEbaZA69cucLo0aOZPXs2iYmJ/jYn6Jg0aRLjxo1j4MCBdvf58ssveemll1i5ciWg1tqSkpJEGiMEsJc5MKBHKL6ipqaGDRs2EBUVJcNvH3L77bcbnQmop4FCaBOWDiUpKYlGjRqRlpZmdzFWEAT3CehFWV9RVFTEunXrzOJMghl/RCY7m+64i0QmhwZh6VAE3yKRyeGL36ON3UEik4MDiUwOX4JuAUEik0MPiUwOHYLOodhDIpMlMlnwPwG/huLNm5wGJDJZIpOF2sHv0cZHjx5l8eLFDB8+nJSUFPLy8jh8+DCXLl1i06ZNvPnmm2b7S2SyRCYLgYvfo423bt3KoEGDWLBgAceOHeO9995jzpw5VFVV0bt3b6sLWSKTJTJZCFz8vobyv//7v8a/O3XqxIwZM5gxY4bb9UhkskQmC/4n4NdQXEUikyUyWfA/fh+haIVEJktksuB/wjba2B0kMtk7JDI59JBoYw+RyOTaQSKTQwNxKE6QyGRBcB35hTihqKjI3yYEPXl5ef42QaglQuYpT6jwyy+/kJCQQHl5ub9N8QlVVVVkZmYyePBgHnnkEX+b4zKSvN41xKEItconn3zCDz/8QH5+Pn//+9/9bU7QEqgSEUElXxAIpKamUlhY6G8zgpb9+/fTtWtXGjZs6G9TgppAlYiQEYpQq1y4cMHrd24E93EmEaEVfl+UvXjxIi+//DKffvop58+fZ8CAATz22GPUr1+fs2fP8vzzzxs9aO/evZk+fTqNGzcGPAv1dxZK70gG4a9//Ss//vgjTz31FE899RRdu3Zl5cqVTuUBHHH69Gmys7P55ptvaNGiBSNGjDArd1b3qVOnyM7O5ttvv6VFixYMHz6cnJwcNmzYQJMmTWxKE/Tp08dhnd70x9F3lpGRYYxv2rhxIxMmTGDixIkO6/PkOxaJCP9JRPh9hLJ8+XL27dtHVlYWa9eu5de//jVffvklAI8//jjnz58nLy+P3NxcysrKWL58udnxWof6O2Lx4sXExcWRnp5OcXGx8b0JV+QB7PHEE09Qr149Xn/9df70pz9ZTaec1b106VIaNmzI66+/TmZmps2FPFNpgsTERKd1etMfR99ZZmYmI0aMYNiwYRQXFzt1Jgbc/Y5FIsJ/EhF+lS84efIkn376Kenp6bRv355GjRoxdOhQ+vTpw7Fjx/j666+ZPXs2119/PTExMcyYMYMdO3aYhclrGervCa7KA9ji6NGjfPPNN8yZM4emTZsSGxvLlClTXK67tLSU3bt3M3PmTJo2bUrr1q3NjjdgKk3grE5v+uPqd+Yu7nzHIhHhX4kIv8oXHD9+nIiICGJjY63KTp48SWRkJK1atTJuM8TRlJWVcf311wPahvp7gqvyALYoKyujfv36Zn0wPRfO6m7YsCHR0dE0adLEuN2yb2AuTeCszvPnz3vcH1e/M3dx5zsWiQhr+6D2JCL8uobSqlUrqqurOXr0qFXQXUxMDFevXuXkyZPGL6K0tBSAFi1aeNWuo1B6ZzIIERHmgzpvJAlatGjBpUuXOHv2rPHiMbXNWd2lpaVUVFRQXl5udCqWfQNzaQJndZ48edLj/vjyO3MVkYiwtg9qTyLCr2soMTEx9OnThz//+c8cOnSICxcusGnTJj777DNat27NrbfeyooVKzh9+jQnT54kJyeHO++80+M7nQFHofSOZBAAmjVrxoEDB4yh9t5IEsTGxnLzzTfz7LPPcvbsWY4dO8aLL75odn4c1d2mTRu6devGc889Z/N4Wzir05v++PI7cxWRiPCvRITfn/IsXLiQl+Pm5hwAACAASURBVF56ibS0NCoqKhgwYIDxbb4lS5bwt7/9jYkTJ6LT6bjjjjt47LHHvG7TUSi9IxkEgJSUFJ5++mnWr19PXFwcK1eu9EqSYMmSJWRnZzN+/HjjU569e/cay53VvXjxYv7yl78wfvx4mjdvzuDBg9m7d6/Dtp3V6W1/fPGduYNIRPhPIiLs5At8kfUukNixYwfLly8Xtfgwo7YlIkS+IEQpLi4mMjKSXr16cezYMXJzc0WzRbBJbUhEiEPxIcePHyclJcVmmUGY21t69uzJihUryM7Opn79+txzzz02Hx1rgdb9qY3zI9QuYTflEQTBe+xNefz+pqwQXIj8gP/aqw35AW8RhyK4hcgPaEOgyg94i8gXuEm4yxeI/IA2BKr8gLfICEVwC5Ef8A+1JT/gLX5/yhPu8gWGkH6dTkfLli0ZPHgwEyZMsLLXHfkBZ3U6QuQHwlt+wFv8PkIJd/mCzMxMiouL2bp1K0888QRFRUVs27bNbB9P5Aec1WkPkR8Ib/kBbxH5Aj/KF5gSERFBly5dGDVqFJ988olZmTvyA67WaQuRHxD5AW8R+QL8J18A8NFHH/HGG29w+PBhLl26BGCVY9kd+YGOHTu6VKctRH5A5Ae8ReQL8J98wZkzZ1i2bBlLly6lR48eREdHs27dOqvpiTvyA67WaQuRHxD5AW8R+QI/yhdUVlZSU1NDw4YNqVu3Lnv27CE/P9/hMc7a86ROAyI/IPID3uL3pzzhLF/QqlUrUlNTWbZsGefOnSMuLo7+/fvz3XffOTzOUXue1mlA5AfCW37AW8IulifU5QuE4KS25Qe8ReQLBCHIqQ35AW8Rh+JDAi08X+QHBF8TdlMeQXt++eUXRo8ebUwu5g1VVVU8/fTTlJSU0LJlSwlADFBkyiN4jOVr4r7ENJpZAhCDD4k2dpNgijbWylZ3I2O9QaKZgxu/x/IIgikSzRzc+H3KE+7Rxo7670oEbN++fdm9e7dVROsTTzxh01ZbUbM9evRweJ4tpzzOErw7QutoZiGw8PsIJdyjjR3135V67UW02rMVrKOXXTnPpjhL8O4IX0QzC4GDRBv7MdrYUf9drdfdiFYwj5p1N8LYWYJ3R/gqmlkIHCTaGP9FGzvqvydRt65EtIJ51Ky7EcbOErw7wlfRzELgINHG+C/a2FH/tYi6tbTVgGnUrLvn2VmCd0cEQjSz4Fsk2tiP0caO+q9F1K2lrbZw9zw7S/DuiECIZhZ8i98XZRcuXEiHDh1IS0sjJSWFH3/80aidaYjenDhxIqmpqTRv3pyMjAyv2zREdY4ZM4atW7daRRuXl5czZswYMjIyuOeee8yOTUlJYceOHQwaNMgYFZ2RkUG7du1IS0tjxIgRPPfccyQlJbn0+NNR/72p156ttnD3PC9ZsoSKigrGjx9PRkYGgwYNcskeT9oSgouwe/Veoo0FwXskc6AgCD7H7y+2hTLhFo0bbv0VrAm7KY8gCN4T9lMeSZYtCL4nbBxKoBGqybKF8EbWUPyEaWyNKzhLlm1IcSkI/kRGKEFCsCTLFsIbn49QJFl2eCXLFsKbWhmhSLLs8EmWLYQ3teJQJFl2+CTLFsKbWlmUlWTZ4ZMsWwhvAu4pjyTLtrYPgidZthDeBNxTHkmWHdzJsoXwJuBGKCDJsoM5WbYQ3kgsT4AQbMmyhfBGMgeGAMGQLFsIb7xyKBKuLgiCKV45lFatWiFTI23Iy8vztwmC4DUB95QnHBAZAiFUEYfiB0SGQAhVNHcov/zyC/fdd5/W1dolNTXVKhVmWloaCQkJfPHFF1b7vvXWW7Vmmy2cyRAIQjATsiOU6667jlWrVnn1opkvEBkCIZTx+2PjU6dOkZ2dzbfffkuLFi0YPnw4OTk5bNiwgSZNmjiUFXjiiSf48ccfeeqpp3jqqafo2rWr8bFqUlISH3/8MVu2bDFKBFiSkZHB559/jk6no2XLlgwePJgJEyYYX7H3hfSCyBAIoYzfHcrSpUuJiYnh9ddfp6KigieeeMKsPDMzk8uXL7NixQqaNGnCq6++yqJFi8jNzWXx4sWUlpYycuRIkpKSzI6rV68ekydPZuXKlSQmJtp8gzUzMxOA6upqfvrpJ5YuXUpsbKzZlK2kpISlS5dyww03kJOTw7x580hMTGT16tWUl5cza9YsevbsaXy5zJG9Op1OZAiEkEaTKU9WVhYJCQkkJCQwevRoqqurjZ8TEhJ4+eWXbR5XWlrK7t27mTlzJk2bNqV169ZMmTLFWO6qrIA9EhMTiYmJ4c0333S4X0REBF26dGHUqFF88sknZmW+kF4QhFBFkxHKggULjC+x/fLLL4wdO9ZKbMgWp06dIjo6miZNmhi3mYbwuyorYA+dTse0adOYP38+w4YNsyr/6KOPeOONNzh8+DCXLl0CMCqkGdBaekFkCIRQxq9TnubNm1NRUUF5ebnRqZiG8LsiKxAR4XiQdcstt9C7d2+rF8fOnDnDsmXLWLp0KT169CA6Opp169axbds2j/vjir0iQyCEMn59ytOmTRu6devGc889x9mzZzl27BgvvviisdwVWYFmzZpx4MABq7B+U1JTU9m2bZuZs6qsrKSmpoaGDRtSt25d9uzZQ35+vlf9ccVekSEQQhm/PzZevHgx58+fZ/z48SxYsMC4uGmQDcjIyKBdu3akpaUxYsQInnvuOZKSkozlKSkp7Nixg0GDBpm9fWpKmzZtSE5O5ty5c8ZtrVq1IjU1lWXLljF48GBWrlypyQ/amb2mMgQGRIZACBUCTr5gx44dLF++PKQfoYoMgRDsBKx8QXFxMZGRkfTq1Ytjx46Rm5tLYmKiv83yKSJDIIQqfncoPXv2ZMWKFWRnZ1O/fn3uueces0fHgiAED353KNdddx2LFy/2txlmWCbh0gJb05wHHniAe++9V7M2BMHf+H1RNlyQCGMhHAi5aOOFCxcaX6m3ZM6cOTz77LO1ZZoRiTAWwoWQG6EMHz6cjz/+mPPnz5ttP3LkCF9//bXNN2Z9jUQYC+GC3x3KqVOnWLBgAUOGDOF3v/sd69evJyEhgfLyckBF7+bk5DBu3DiGDh1KRkYGJ06cADCLNk5ISGDatGn07t2bJk2a8P7775u1s2nTJuLj4+nYsSMZGRkkJCSQmJhISkoKr732msOpx9ixY81GEmVlZSQkJBidliMbQUUYd+7c2areuLg49uzZ4/nJE4QAw++Lsr6INh4yZAibN29m1KhRAFRVVVFUVERqaqqxTnAcZewOEmEsCIqQjDYeMmQIhw4d4vvvvwfUlKOqqsrwMo4RR1HGriIRxoJwjZCMNr7++uu566672LhxI127dmXjxo3cf//9xpzDrkQZu4pEGAvCNUI22njYsGE8/vjjjBw5kq+++ooZM2YAnkUZR0VFGSUKADPnIBHGgnCNkI02NizOLlmyhPj4eDp06AB4FmXcuXNnCgsLOX/+PCdOnCA3N9ctGyXCWAgX/P6Ux1fRxjqdjqFDh3Ls2DGzR8WeRBmnpqZSXl7OmDFjyMjI4J577jErlwhjQVBItHEtIRHGQigh0cZ+RiKMhXDA7w5Foo0FIXTwu0MJxGhjQRA8w++LsoHGtGnT2Lx5s6Z1SnJ0IVwQh1ILiHSBEC4EtXyBSBcIQmARUiMUkS4QBP/id4eyfv16UlJSSEpKYubMmca0niDSBYIQbPj1Kc+RI0d44YUXeOaZZ4iLi2P//v18+OGHdOnSBRDpAkEINjRxKFlZWRQVFZltM5UKmDBhAhMnTrQ6LjIykjp16tCgQQPq1atHfHw88fHxwDVZgH/84x9cf/31AEydOpWhQ4dy8OBBu5HGQ4YMYc2aNXz//fd07drVZekCTxyKpzYKQqjiV/mC1q1bs2jRIlatWkV5eTmdOnVi9OjRdOrUSaQLBCEI8fuLbX379qVv377U1NSwdetWZs6cyfr160W6QBCCEL8uyu7cuZO8vDxKS0upqqqiurqay5cvU11dLdIFghCE+NWhdO/enUaNGpGens6wYcPIz89nyZIlREdHAyJdIAjBRsDJF4QiIl0ghBr25AvEoQiC4Db2HIrfX2wTBCF0EIciCIJmiEPRAJE8EASFOJQARSQPhGAkqOULPEEkDwTBd4T9CEUkDwRBO/zuUCZNmkReXh6zZ89m8ODBbNu2zakkgEgeCEJg4vdYHoAtW7bwxBNP0LVrVyIiIli8eLFdSYDS0lKRPBCEAMWv8gUGRo4cSbdu3QDnkgDR0dEieSAIAYpf5QsMxMTEGP92JgnQt29fkTwQhAAlIKY8Ot21CABXJAFE8kAQAhO/L8pa4kwSQCQPRPJACFwCYoRiSUZGBmvWrCEtLY0zZ87QoUMHxo8fT926denevTv79+8nPT2dU6dO0bZtWyvJA3vHgpI8ePrpp1m/fj1xcXHGCGCD5MHLL7/Mww8/bLTFVPLg3LlzxMXF0b9/f7777ju79qemppKVlcWYMWOIjY0lOTnZ7KmPMxtNJQ/69u0LiOSBEBxItHGAIpIHQiAj8gWCIGiGyBcIguBzxKEIgqAZ4lAEQdAMcSiCIGiGOBRBEDRDHIrglNLSc5SWnvO3GUIQYPfFtscff7wWzRACmdOnY4Earr/+mL9NEQIcW++h9AHm1rYhQuASEzM5CeDkyZcKne0rhBV/BT4z3WDLoQiCkZYtZ90ZEaH7HKCmRnfn8ePP/MvfNgmBi6yhCA6JiND9FvgB+EGnq0nxtz1CYCMORXDA4xHA2Joa1up0vKnTMQ7GRvrbKiFwEYci2CU2tjwRaBMZGbE2IkL3fzU1tG7TpvUAf9slBC7iUAS7VFfXpAA7S0v/+uORI8/sB92u6upImfYIdhGHItikW7fH6+l0jADWGrbV1LAWakZ37jwjyo+mCQGMOBTBJmfOnB0MNI2M1L1l2Fa37pW1QOOLF+sk2T9SCGfEoQj2SNHpaj4+cuSZUsOGw4efPwqU6KdCgmCFOBTBiubN0xrX1DBUTXEs0a3V6WqSmzWbYVthWwhrxKEIVtSte3mETkfdiIiq9dZll/JBFxEVFTHcH7YJgY04FMEWKdXVbCkt/dtpy4L//OeFMzU1FAEy7RGskFfvBTNiY/9fc7h6tKam5nmdLuI9W/vU1FQP1ul00yEy9ujRv0huVMFIQKbREPxHdfXVsToddUE3p6amZo7tvXTU1EBNzdWxwAu1aqAQ0IhDEcyIiLj4ap06kW+abquqivo7QJ06lY+Yb79aiSAIgjvExs55OzZ2ztvO9xTCHVmUFQRBM8ShCIKgGeJQBEHQDHEogiBohjgUQRA0QxyKIAiaIQ5FEATNEIciCIJmiEMRBEEzxKEIgqAZ4lAEQdAMcSiCIGiGOBRBEDRDHIogCJohDkUQBM0QhyIIgmaIQxEEQTPEoQiCoBniUARB0AxxKIIgaIY4FEEQNEMciiAImiEORRAEzRCHIgiCZohDEQRBM8ShCIKgGeJQBEHQDHEogiBohjgUQRA0QxyKIAiaIQ5FEATNEIciCIJm1LGxrS3Qt7YNEQKXqqozN+j/fNCvhgiBxqfAEdMNOhs7PQi8VSvmCIIQzIwD3jbdYGuEYsCWsxEEQQCosbVR1lAEQdAMcSiCIGiGOBRBEDRDHErw8xUwIYTbCxVaodYdmru4/+fAJN+Z4xvEoQhaE5Q/BA0I136bEUwOpRDl4U3/FfrVoms2WV5It+i3n691i/zPXUCeC/vVx/r7NP1X5SsDfYSr/Q5pgsmhADyLepxt+JfkX3MA+Ab4vcW23+u3C/a5hPl3uQ542eSzo1cahAAl2ByKPY4AvzH53BZ1l2uKcjq27oC/cVI2FfjWop0uqDtne5Ntm1Hz4t76z42AFCDXhp2NUE7xEHAW2GRR11fAX4ES1OhmD3An8P/0fSwHXsT6e4vXH/Nf4N9APzfbXA58BJwDfgvMBA4CF/T19rBo79fANn17PwD3m5RZDv2/Av7kwD572LJrE+r7qdbb90fM35dy1pajc+HoWgCIAd4ATgIngFeBZg763Vpf/39R3+Noi/4560vI8CB2XlrxM4XACjtljhyKJYuBXaiLy1FZI9QP2PSCzAa2WNj0JLAQeEW/7fdAATAU6ynPeuA9oANwnb6+f3PNQXyFurh66ttfjbogX0RdvF2AY8BYkzq/An4BBujrTNfb3cKNNo+hwi0igTjgsr7f9VFD+act2juEcqAN9H0/wbUfgy2H4sg+A//AfMpgaZcpkcDtwD7gIQ3PhSmW18lHqJtHLHADyqFuNtnfst//1PcpBugEfIHtRVl7fQn0NZkaXAzFCGSHYnn3GKEvc9WhPAwcQK24W2Kr7HngNf3fUcApYJSFTU+iLpqzqB/916i7naVDMdgUa7ItAnXB36L//BUwx6R8AOoO1tBk2/8BmSafDXdlU/YAU9xoc6FJeQe93bdgm6+AuSaff6Vvo43+s70Rii37TLHlUBbimJnAmy625cq5MGB5LXTUH3ujyT4367e11n827XcnfVmMyf734fgpj2VfgtKhBNuUx3INZYMbx94PPAUMBo67WLYSGANcjxoVVAEbbdR9EjVyeRH14y+ysU8H/f+lXHOIV1F3yhtN9isz+fsScBE19TDdFm1R9wEbn9u60eZ/TP4+iJqyPQ3sRI2SbrOo/6TJ3xX6/y1tcsU+Z/zH4vNY1IjiPKovz9qox9tzYetauAH13f9sst9+kzJL2qK+M9Pz9JMHfQk6gs2h2KMC8ws6xqK8O+rOPhrY60bZHmAH8DvUmsorwBU7NqzU17EK2yO8Q6jRRnPMnaIO207KHTpYfO6IGrW52qalvRtRo6zeqKH9P1HTG63tc4apXS2BtcATqFFBBGo0Z7l46825sHctHNa3085kW2eTMkuOoG4sptdhRw/6EnSEikP5CngENcVpj7rDGGiPWgD7PfCJxXGOygysBNJQc3lHjwVLUBdntp3y/6DWVl5BrVM0AO4A3kFNp7xhKnAv0BiYh7rTveNhmwNR04bOQF3UHD8a764Ve/a5g8GGctQaz12YTw+dteXsXDi6Fg6gnOrfUA7gBuA51Kj0mA0bftLX8Txq/aYj5tNUV/sSdISKQ0lH3XlKURfFepOykaj5/T+wXr13VGbgHdSdrZhrw1xP+V/UnW8Lajicg7rAK72s90XUE5GjwHhgCNemTu62+TFqPWgLcAZ1oT+Id+/UOLLPVX5GOfa1qIXqv2L+PbvSlqNz4exaGIc6B9+gFmtL9fXZYxxqQfcn1DW5xoO+hASBuijrL6KA06jHloL71Oar+hIWUHuExKJsbaMDHkOt0azzsy2CEPAE/SKQj7mIGv4/iv3FWEEQ9IhDcYyjR6GCa3QP0bYEG8iURxAEzRCHIgiCZohDEQRBM8ShCIKgGeJQBEHQDEdPeeTlNkEQ3MKRQxlXa1YIghBs2Mwu6sihvO2gTBCE8MamQ5E1FEEQNEMciiAImiEORRAEzRCHIgiCZohDEQRBM3zhUFpRO1nf3M3aZ6qaX4XSGF2G83PgaoY70/ovopS9xtup84/6/WwpfpnWcw74FCVpaKvcUlnsN05s7WZSTz+UmPZ/UXovu4D/sWHLCovPhroqUNKI/wf08rCf9tKiOMLyuAYoRbQvuaZA7+gcrUNJQZoSgUqTEfaZ/7wl2Eco7mbtM6jm10flQJkJTHTShjsZ7gz1NwdeQsn+3WxRX4S+zZeBVCd2tkH90AswFzy2VP/XAVv1/yy3N0Kpq28AvtcfPxj4EPhMb19bfZ05qHw0jjC03QR4AKWp+hlKQtHdfnpLc5Q0Z32U0zXVd7V3jiajEpeZXjfzUek1ZvnIzrAh2B2KO1n7TKlCiQj/C+sfvBZcRAka12Cd82UQKhnVNJRCu6P2/4vSy20M9PHAjgjgdf3fE1DauDq9bXnA4yjx5tMo5zcdWIR5ZkF7XEZlDZyvPzYH88x37vTTEzqgRm/7UQ7yvy4e9wtqxPQ00BWVZGsRajR5wcFxggsEu0OpRokST9N//h+U+rxlPhdL6qCUxu/Q7681DVDSkTWo3DampALPoH6Qf8M64ZWW/Bk1HRnOtR9LV1Qemtds7L8WdU4HutnO66jR1K9NtvmynzejRkUFKEd52c3jt6GyGbyBsn05KrOf4CVaOZRXuDZPPYZKvWA6d31So3Zs8RIqg2AzVAqFlQ72naW35wrqgtyEe8nCnGGo/wIqncYIVIpJA7Go4bbhLcNVqBww9pThrkOlXziPyiRn2Y7pP8uMdJNR52M4SqHdgCEtZynWXEUlt7LMa+QMQ26a6/X/u9tPd7kD5bT/jv2YM2fn6I9APdTI5imrowWP0Mqh/I5r89TWqAvTdO76R43asYUrWfsMGObVkah0kTegMuNphaH+GFTyqCWY5+WdqG/zMuoCP4X68VnGTRl+DEdRydJHoPIHW7Zj+u+USfl9qCnIBNT6iSmGlBJtsCYStah+0kaZIwzZ8ww2uNpPT3kF9b19jMoDbQtn5+gyak1pN2pUJmhAsE95DDjL2mdJNeoJxVqsFxO1oAz19KkT1xZ9I/TbumF+kQ/Eejpg+DE0Qk3NtrnR9k2o3DJ/xPbo63vUEy7LJzqg1p8igQ/caA/U+sMR4Efc66en1ACzUd/3h5gntBf8SKiIVBuy9rmKDrXw+FtUcnNfcBY17VmIuqMaEkbtsdjvn6iF21uAb71sszlqoXod9jMY1gAzUE7nFOopzAVUQqwc1HrCIRfaqovKiDcRtchpyOf0gL7cl/008EfUdLAISEY5F8GPhMoIxVUMU4mrqJzFJ1GPj31FDmqu/whqkXKLjX0uo0Yg7jxatbU+8DvUlMLwI7f1HsYY/fEbUSOGfqgf/lFUhsDZqGmaK22fQ73vEYt6AmVILepOP231w92nQVnAAn2fhjmp+3du1i1ogGQOFATBGZI5UBAE3+JPh3Ij9l8R/8hB2Su1bIsv2hNscyPyPQQ1/lyU/Rn3FlJ9yc8Eji3hzM/I9xDUyJRHEATNEIciCIJmiEMRBEEzxKEIgqAZjhZl82vNCkEQQgIZoQiCoBmORihja80KQRCCDZtv08sIRRAEzRCHIgiCZohDEQRBM8ShBC5foRTXQrW9UKEVtiU47fE51qlfEjCX+HyPa1ITQYU4FMFVbP0QwoHa6Hem/p/p5+UEYVxTICT6spWUqdAHdrmDu0nEwoG7cC0RlquJ0YIFV/vtKbcDnVGjEgMlKAHt39g8IoAJlBGKpaBwkn/NAdxPIiYo3EmMJsAolHTlFYvt7+vLgopAcSj2OIK5l26Luss1RTkde+kmHZVNxVrTtAvqzmma4MqdJGKNUE7xEEpLdpNFXV8Bf0Xdec6jZBfvBP6fvo/lKNV+y+8jXn/Mf1Hq9aZizK60uRylLXMOpZ87EziI0pAtQaW6MOXXKJnG/6KSeN1vUmY59P8K+JMD++xhy65NqO+nWm/fHzEf7jtry9G5cHQtgMpQ8AZKDvQE8CoqJYu9frfW1/9f1Pc42qJ/zvpiyV36/lnyb31Z0OOtBKQnUx57OW4dORRLFqPSdjZyUtYI9QM2vSCzMddBLUTlEjIITIManRQAQ7Ge8qxHDVk7oHLpZKMuCIOD+Ap1cfXUt78adUG+iLp4u6DyGZm+TPgVKsvdAH2d6Xq7DXl1XGnzGNAXpWQfh9J17YealtyFyp5n2t4hlANtoO/7Ca79GGw5FEf2GfgH5lMGS7tMiURNAfZhrvXr7bkwxfI6+Qh184hFpf7Ypv9swLLf/9T3KQaV1eALbC/K2uuLZX17sL1GMxLz1CmBhk0JSFt44lBewfG82VGiL1trKCP0Za46lIdRaTFa2ajfVtnzXMucF4VSfzcdXhocSgzqjtcMpY6fhLVDMdgUa7ItAnXBG9KQfoUSgTYwAHUHa2iy7f8wX5gz3JVN2YNKReFqmwtNyjvo7bZMjWra3lyTz7/St2HI32NvhGLLPlNsOZSFOGYm8KaLbblyLgxYXgsd9cfeaLLPzfpthsTrpv3upC8zTYR2H46f8lj2JaQdSqAk+rJcQ3Enm9/9qMxvg1FZ71wpW4l6LHc9alRQhVJNt8SVJGId9P+Xcs0hXkXdKW802a/M5O9LqPzHFyy2WWbWO2Djc1s32jRNyXoQNWV7GpUedTVwm0X9pgm+KvT/O8r2Z88+Z1imih2LGlGcR/XlWRv1eHsubF0LN6C++59N9ttvUmZJW9R3ZnqefvKgL6YcxXpUB8ppHXVwXEAS6GsoFZhf0JYpMruj7uyjgb1ulO1BpdH4HWpN5RWsF8UMOEsidgg12miOdaY6W07KHTpYfO6IGrW52qalvRtRo6zeqKH9P1HTG63tc4apXS1RCdeeQN2MIlCjOcvFW2/Ohb1r4bC+nXYm2zqblFlyBHVjMb0OO3rQF1M+19tnSQ/UNRpUBLpD+QqV06YpapHNNAdte9QC2O+BTyyOc1RmYCWQhprLO3osaEgiZi9x1n9QayuvoNYpGqBy776Dmk55w1TgXqAxMA91p3vHwzYHoqYNnVFJuiJRztqba8Cefe5gsKEctcZzF+bTQ2dtOTsXjq6FAyin+jeUA7gBeA41Kj1mw4af9HU8jxpVdMR8mupqX0x5B0jE2ukMRK0NBRWB7lDSUXeeUtRFYXqCR6Lm9//AevXeUZmBd1B3tmKuDXM95X9Rd74tqOFwDuoCr/Sy3hdRT0SOotJ9DuHa1MndNj9GrQdtAc6gLvQH8e6dGkf2ucrPKMe+FrVQ/Vds/5A8PRfOroVxqHPwDWqxtlRfnz3GoRZ0f0Jdk2s86Ispu/R1DTbZdjdqKrbVybFBQbgk+ooCTqMeWwruU5uv6od6WEAi5q/ebybw5UNsLsqG60tGOuAx1BrNOj/bIgjbMH/nZIi/DPGWcHUoF1HD/0exvxgrCIKbhKtDcfQoVHANW08mQqEtwQsCfVFWcA2ROggOQl7qlAniugAACgVJREFUQByK4AtE6sB3BLTUQSDIF7iDSB0EByJ14BsCXuogGEcoInUQOojUgXsEvNRBMDoUe4jUgUgduNKWSB3UMrUtX+AM0xB3kToQqQMDInVwDX9EJgesfEEn1Jf8C+qHtBx192sITAYWmOwrUgcKkTq4hkgdBJBDCQT5godQQ8cbUc6hESq+5megP9fu+gZE6kCkDkTqwJyAkToIhDWUZcC7qGH918As1B2kBfA/WP/w7SFSB+aI1IF1WyJ14GMCwaFohUgdiNSBs7ZE6sDHhJJDEakDkTpwpS2ROqhlwkW+wB1E6sA7ROpAOwJF6kDkCzxEpA6EQCKgpQ7EoThHpA4EwQtkyiM4oi7qMf85YLefbXGHUIjIDqRIY5++hyKED8moJyNtUS92CZ7hSWRyQEcaQ/BFGwcCO1HvpIQr3VHvPJT725Agx93I5ICPNAYZoQju0wTvH3EL7hPwkcYQGA7lOtQrxwdR7zzkci1uxVl0pyeRuc6iUR3FBL2JCtr7u36bYT7rLJrXEa5Ez1pG3Dprz90oVlMcnfNNwHQgFecxWqb2u/sdSUS2tX1BGWkMtR9t/C7qJMajfrRTUEF14Dy60xeRuc6CDG1NedyJYLWHo+hZy4hbV9uzV6cjPsLxOX8eFVrgKp58RxKRbW1fIAUGQoBGG7fTl3e2UeZKdKfWkbngvkNxJ4LVFWxFz5pG3HrSnmWd9nDlnHviUNz5jiQi29o+w98B71D8HW18o35fyyhMcD26U8vIXE9wNYLVHq5EnJpG3LrSnrtRrAbcjah1FXe+I4nItrYPgiDSGPy/hvIzavjYyUaZu9Gd7uAo8tVZ1HK1xWdvIohdjTg1HTE6a8+TKFYDvjznriIR2db2QRBEGoP/Hcp/UItfq4GuqCcIk1FrKO5Gd7qDo8hXR1HL6Nu+lWs/UG8iiD2JOHXWnid1GvDlOXcVici2fV0GfKQx+N+hgHqb8FuUINEB1EJbsb7M3ehOV3EUjeooahngz8ADqJGM4SmPpxHEP+N+xKmz9jyt04Cvzrk7SES2tX1BGWkMof/qfahHowrBiSvXZaBEGoNEGwtC0BPQkcYQGFOeUOZG7D9KfyUE7NG6PiEECfUpjyAI3iPRxoLPcDcJuCOCVR5BQByK4Bq1mfxc5BGCGJEvcJ9gki/QylZfJwE3ReQRghgZoQiBhsgjhBi1HW0cbPIFpk8ytJAvcNR/V0Lql2E7RN6erbbC8L1NAv4Yrq+hOJNHcCWoVPA/Po02NkXkC9yTL3DUf1dC6h2FyNuy1ZYcwkf4Jgm4LZy15W40s+AfRL7A5JhAkS9w1H9XQ+odhcjbcyimYfi1kQTcnbbEoQQHIl9gQqDIF9yI/f67Wq+7IfJgHobviyTg9vCVPIIQIPh7UfZnwlu+4Gfs91+LMH5LWw2YjkC1TgLuiECQRxB8iL8dSrjLFzjqvxZh/Ja22kLrJOCOCAR5BMGH+NuhQHjLF4Dj/nsbxm/LVltomQTcGYEgjyDUIqEeyyPyBYLgPRLLIwiCbxGH4ltuJLzC+28kvPorWBCOAku2hH59xc8EUN7ZWuBnwqu/ggXhNEKp7bUTX7SXgPni6nvAGI3bEASPCSeHEmh4IgmQifkj2kzU0yoZFQgBQThOeQIFd/PR3o56Cew9k20lQD1UqMAHGtklCB4jI5TgYRTwIXDFYvv7+jJB8Du14VA8kRhwJWzf3TpBRfTaky1wpU3LsP+ZqGjnC/p6e1i092tsSwuA/dy29uy7S7+PJf/G/dGOINQaWr/Y5onEgCth+1rLFrjSpmnYfxwqM18/oD7qR/20RXuOpAVsORRH9gVasmwhvKk1PRRL3JUYcDVsX0vZAlfbNA3774AaHdmTKHAmLWBvhGLLPsPf4lCEQMGvb8q6IzHgati+lrIFrrZpGvZ/EEhBjUp2okZJt1nU7660gCNZhaNcG62YEqMvEwS/E4hPeQxh+zHAaY3rtiVbUOBGm5Yjt436fxHAQ6hI2tYo56alfaBGNLZeyuuBEnUWBL8TiE95tAjbt4c92QJP2hyImqJ0RuWSiUSNPrw5p45kFd5B5ba1vAkMxL1k6ILgMwLRoYD3Yfv2cCRb4G6bH6OeBm1BiUvPQc0pz/vIvl0ouYDBJvvfjVJA2+pFm4LgU0JdviBQceVV/UTMX73fjPmTLEGoLWwuygbiGopgn22Yv3MyxF+GCIItvJ3y3IiEqwuC4ACZ8vgXLROPByLBmgxdotXNEcU2ISCQZOjaEJDR6pIs3X2CKVl6ICLJ0LXB3QT2zqLVNUFGKEJtI8nQ/UOtRKsHgkMJtmTpPYG/o12ydMvE46Mtyp3V3QZ11zEcPwPzNRhbUdLO6vSmP86SoU8HUnE9GbpEqwd5tLokS6/dZOnOEo87q3s7sJZrSbd2YO1QLJOjO6vTm/58hLbJ0CVaPTCj1SVZuskxgZIs3VnicWd1d8b6iVAi1g7FNEraWZ3e9McXydAlWl0RaNHqkizdhEBJlu4s8bizutugLspTJsdY9g3Mo6Sd1elNf3yVDF2i1YMkWt3fb8r+zLVk4fstykwTaxu+CF8mSzdE9XqaLN2T6GjTxOOGi8c08bizujujhuzNueZUbCUuNx1xOquznZNyR/jyO3MViVa3tg9qKVrd34uy4Z4s3VnicWd17wc+QwUyupq43Fmd3vQnEJKhS7S6H6PV/e1QQJKlO0s87qzucSjn9xNq8TNfv/2ygzad1eltf/ydDF2i1QMoWj3UX70P9WTpg1Gr/UJ4UdvR6hJtHKKMQ91l3kdNeZ5CvS8jCJb4PFo9EKY8ocyN+D4aeyvqLnMINWXahnpByxfciLb90bo+IQAJ9SmPIAjeI9HGbiBJyQVBI2SEopxJssnne1CxFJKUXBAUtTZCCXb5gloJ8xaEUESmPNZIUnJB8JBAcCjOwq43oYZX1aj4hz9iPvVwNyzcWZi5JCUXBA2pbfkCZ2HXBiJR05F9qLgH0+PdCQt3FmYuOYQFwTkBKV8AzsOuLZmJ+Ytb7oSFuxJmLg5FEJwTkPIFBhyFXY9FjSDOozrxLNZSA66GhbsSZi5JyQXBQwJhDQVsh10fAVqi1MieQDmqCFQQlWXIgK2w8CSU2tU2VARsA66FmTfH3OHp9MeAJCUXBI8JFIdiL+zaEM5djloXuQtzpS1bOAoLdyXMXJKSC4KG+GNRNhOljXoO+BL1IpmBecBxVBj4Z8AzmL/FahllWQ9IQy3eXtSXjzApb4yaDv2EmkZZvsSGfttwk893Az8SOA5YEPyNTxdlvSEQ5QQkKbkgOEbkC9xAkpILggfIEF4QBM0IhBGKrScqgiAEITJCEQRBM8ShCIKgGeJQBEHQDHEogiBohqNFWZdeWhEEQTDgyKG8VWtWCIIgCIIgCIIgCIIgCIIgCIIgCO7x/wHzyGeBqQ/lAQAAAABJRU5ErkJggg==;" vertex="1" parent="1">
                    <mxGeometry x="120" y="760" width="276" height="477" as="geometry"/>
                </mxCell>
                <mxCell id="12" value="" style="shape=image;verticalLabelPosition=bottom;labelBackgroundColor=default;verticalAlign=top;aspect=fixed;imageAspect=0;image=data:image/png,iVBORw0KGgoAAAANSUhEUgAAAU0AAAE8CAYAAABEjuOgAAAABmJLR0QA/wD/AP+gvaeTAAAgAElEQVR4nO3de3hU1b3/8feeKDEUawQSSEAUBI4gelARL3gLFYigAnIr4q/qkXI7oKTtAXKqgKFR8PAUUA89ULS2HrwUUQpewqkKij6KSgWK1AsqKskkhNBgkUsx2b8/1swwM0kmM0kme8/k83qePGT22pe1w9rfWWvt2d8BERERERERERERERERSUqW0xVIAFcAP3O6EtIi/Rp4x+lKSKhTnK5AAjgLGH3ttdc6XQ9pQd544w2ANShouo6CZpTmz5/vdBWkBcnJyXG6ClIHj9MVEBFJJAqaIiIxUNAUEYmBgqa43sGDB8nJyeHQoUNOV0VEQVMSz7Rp03jppZcavY5IQ+juuYvNmjWL999/P2TZpZdeykMPPeRQjYyPP/6YJ598kl27dnH8+HE6derE9ddfzy233EJqamrcj798+fKQ15MnT2bkyJHk5ubWuY5IU1HQdLlRo0Yxffp0p6sR8N5773HvvfcycuRIpk6dSkZGBiUlJbz22mu88847XHfddU5XUSSuFDQT1JgxY5gzZw6XXHIJAOXl5YwdO5YNGzawe/duZs+eXWObxYsXU1VVVWdZcXEx69at4/HHHw8s37dvH7fffjtPPfUUmZmZLFmyhKFDhzJ16tTAOl27dmXixImB15WVlTz66KNs27YNgP79+zN9+nROP/10ACZOnMiVV17Jrl27+OSTT2jbti333HMP/fr1A6CiooLFixezc+dOMjIyGDFiREhdp02bxrBhwxg2bBgFBQV8+umnLFq0iEWLFtGrVy+WL18esk5T1EnET3OaSah///5s2rQp8HPnnXfSo0cPevfuHbFs0KBBlJWVsWvXrsC+NmzYQL9+/ejQoQNff/01paWlDB48OOLx58+fz+HDh1m1ahUrVqygvLycwsLCkHU2btzIpEmTeP755xkyZAiFhYXYtg1AQUEBrVq1YvXq1TzwwAMUFRXVeay5c+fSs2dPZs+ezaZNm+oclje2TiJ+Cpout3btWnJycgI/b731Vkzbb9y4kaKiIhYuXEhaWlrEsrS0NAYPHsz69esBOHHiBEVFRdx4442A6a0BtG/fvs7jeb1eduzYwcyZM2nXrh2ZmZnMmDGDrVu3UlFREVhv9OjRnHfeeaSmpjJ8+HAqKyupqKigpKSEnTt3kpeXR3p6OtnZ2UyaNCmmc27qOokEU9B0uVGjRoX0DK+66qqot/3ggw9YsWIFCxcupG3btlGVjRgxgjfeeINvv/2WzZs3k5KSwhVXXAFAeno6AAcOHKjzmPv37yclJYWOHTsGlnXq1AkwUwh+/n0BgZtHx48fp7y8nNNOOy2kPDs7O+pzjkedRIIpaCao1NTUkAva3wv027NnD4WFhRQUFNClS5eoy84++2x69epFUVER69evJzc3l1NOMVPfXbp0oWPHjvz5z3+us16ZmZlUVVWxf//+wLLi4mIAMjIy6j2vjIwMjh07FnI+Xq834jYeT+Rm3Ng6iQRT0ExQ3bt3p6ioiMOHD1NWVsaKFSsCZWVlZeTn55OXl0efPn1CtotU5jdixAiefvppPvroo8CNFADLssjLy+Pll19m5cqV7Nu3j+PHj7N3715WrVrF5s2bycrK4sILL2Tp0qVUVFSwf/9+HnnkES677DLatWtX73llZ2fTp08fli1bRmVlJV6vl5UrV0bcpm3btnzxxRdUVVXVWt7YOokEU9BMUJMnT+bQoUOMHj2a/Px8rr766kDZli1bOHDgAPPmzQuZD922bVvEMr+rrroKj8dD3759A8NYv/79+7Ns2TK++uorpk2bxvDhw1mwYAFt2rQJDOPnzZtHWload911F5MnT6Z9+/bk5+dHfW7z5s3j6NGjTJgwgfz8fIYMGRJx/fHjx7N161aGDBnCtGnT6txnY+ok4qckxPUbCzy7adMmp+vRbE6cOMGoUaOYOXMmAwcOdLo6LZIvNdw44I8OV0XCqKcpIWzbZt26daSmpnLNNdc4XR0R19GH2yVEbm4ubdq0YdasWYEbQCJykq4KCbFx40anqyDiahqei4jEQEFTRCQGCpoiIjFQ0BQRiYFuBEVp8+bNTldBRCQhjAVs/ejHgZ+xiOuopxmllvREkDjP90SQuJDmNEVEYqCgKSISAwVNEZEYKGiKiMRAQVNEJAYKmiIiMVDQFBGJgYKmiEgMFDRFRGKgoCkiEgMFTRGRGChoiojEQEFTRCQGCpoiIjFQ0BQRiYGCpohIDBQ0RURioKApIhIDBU0RkRgoaIqIxEBBU0QkBgqaIiIxUNAUEYmBvvc8SvoeahEBBc2ozZs3z+kqSAty//33O10FqYOCZpSuu+46p6sgLYiCpntpTlNEJAYKmiIiMVDQFBGJgYKmuNLBgwfJycnh0KFDjtbjww8/ZNq0aYHXc+bM4Y033nCwRuI0BU1JCNOmTeOll15q9Dqx+u1vf8uECRMCr2+99VZWrVqFbdtNehxJHLp7HmcHDx5kzJgxvPbaa1GtP2vWLN5///2QZZdeeikPPfRQPKoXtY8//pgnn3ySXbt2cfz4cTp16sT111/PLbfcQmpqatyPv3z58pDXkydPZuTIkeTm5ta5TmN99tlnFBcXc9lllwWWXXjhhXz//fds27aNfv36NenxJDEoaLrQqFGjmD59utPVCHjvvfe49957GTlyJFOnTiUjI4OSkhJee+013nnnnaT9ONaWLVu4+OKLOeWU0MukX79+bNmyRUGzhVLQTCBjxoxhzpw5XHLJJQCUl5czduxYNmzYwO7du5k9e3aNbRYvXkxVVVWdZcXFxaxbt47HH388sHzfvn3cfvvtPPXUU2RmZrJkyRKGDh3K1KlTA+t07dqViRMnBl5XVlby6KOPsm3bNgD69+/P9OnTOf300wGYOHEiV155Jbt27eKTTz6hbdu23HPPPYHAU1FRweLFi9m5cycZGRmMGDEipK7Tpk1j2LBhDBs2jIKCAj799FMWLVrEokWL6NWrF8uXLw9ZpynqtHv3bi666KIaf7eePXuyfv36iP9Xkrw0p5kk+vfvz6ZNmwI/d955Jz169KB3794RywYNGkRZWRm7du0K7GvDhg3069ePDh068PXXX1NaWsrgwYMjHn/+/PkcPnyYVatWsWLFCsrLyyksLAxZZ+PGjUyaNInnn3+eIUOGUFhYGJgbLCgooFWrVqxevZoHHniAoqKiOo81d+5cevbsyezZs9m0aVOdw/LG1unAgQOkp6fX2G96ejoHDhyI+PeQ5KWgGQcLFy4kJyeHnJwcRo0aRXV1deB1Tk4Ojz32WMTt165dG7L+W2+9FdPxN27cSFFREQsXLiQtLS1iWVpaGoMHDw70nE6cOEFRURE33ngjYHprAO3bt6/zeF6vlx07djBz5kzatWtHZmYmM2bMYOvWrVRUVATWGz16NOeddx6pqakMHz6cyspKKioqKCkpYefOneTl5ZGenk52djaTJk2K6Zybuk4iddHwPA7mzJnDnDlzgNhvBEHj5jQ/+OADVqxYwdKlS2nbtm1UZSNGjGDSpElMnz6drVu3kpKSwhVXXAEQ6GkdOHCAzMzMWo+5f/9+UlJS6NixY2BZp06dADOF0K5du5B9AYGbR8ePH+fAgQOcdtppIeXZ2dkNOv+mqhNAu3btAm8awSorKyO+iUhyU08zgaSmpgYuaKDGBb1nzx4KCwspKCigS5cuUZedffbZ9OrVi6KiItavX09ubm7g5keXLl3o2LEjf/7zn+usV2ZmJlVVVezfvz+wrLi4GICMjIx6zysjI4Njx46FnI/X6424jccTuek2tk4AvXv3Zs+ePTWWf/rpp/Tq1SuqfUjyUdBMIN27d6eoqIjDhw9TVlbGihUrAmVlZWXk5+eTl5dHnz59QraLVOY3YsQInn76aT766KPAjRQAy7LIy8vj5ZdfZuXKlezbt4/jx4+zd+9eVq1axebNm8nKyuLCCy9k6dKlVFRUsH//fh555BEuu+yyQI8ukuzsbPr06cOyZcuorKzE6/WycuXKiNu0bduWL774gqqqqlrLG1sngKuvvpoPP/ywxjG2bdvGNddcE9U+JPkoaCaQyZMnc+jQIUaPHk1+fj5XX311oGzLli0cOHCAefPmhcyHbtu2LWKZ31VXXYXH46Fv376BYaxf//79WbZsGV999RXTpk1j+PDhLFiwgDZt2gSG8fPmzSMtLY277rqLyZMn0759e/Lz86M+t3nz5nH06FEmTJhAfn4+Q4YMibj++PHj2bp1K0OGDAl5Yid8n42pU8+ePcnOzmbr1q2BZX/9619JSUkJfIJBWh7L6QokgLHAs5s2bXK6HnF14sQJRo0axcyZMxk4cKDT1XGNDz/8kN/+9reBO/Rz5swhNzc37p9N9SW9Hgf8Ma4HkpjpRpBg2zbr1q0jNTVVw84wF110UchHmhYuXOhgbcQNFDSF3Nxc2rRpw6xZs2o8/SIioTSnKWzcuJG1a9eGPGOdSJQRSZqTgqYkHWVEknjSWCzOGvLh9mgpI1LtlBFJ4klBM8EpI5I7KCNSy6GgmaSUEUkZkSQ+NKeZYKqrqxu9D2VEavo6KSNSy6GgGQeNyXJUUlLC3Llzufnmmxk/fjyrVq3im2++4dixY7z44os888wzIesrI5IyIknz0vA8DhqT5ejVV19lyJAhzJkzB6/Xy8svv0xeXh7ff/89/fv3Z8qUKSHrKyOSMiJJ81LQdJmf/OQngd/PPfdcZsyYwYwZM2LeT7QZkRYsWFBnRqTayoIzIm3ZsqXOjEi9e/eutV7B2Yf8gbWhGZH8QawpMyI1pE6gjEgtiYbnSUoZkU5SRiRpSgqaSUoZkU5SRiRpSspyVL8WkeUoFsqIVLumzIikLEfupTlNiYkyItVNGZFaBgVNiYkyIklLp1YvMdm4caPTVRBxlG4EtTDxyO7TEEqjJolKQVMcoTRqkqgUNOPs4MGD/OhHP3K6GnEzefLkiM9+16a+NGoibqagKc2uvjRqIm6moOkyR48e5ZFHHmHcuHHceOON5OfnU1ZWBsALL7zAT3/605D1vV4vAwcOpLS0FID8/HxycnIYOHAg48eP58knn4w45B0zZkxI7668vJycnBwOHz5c7/6C067l5OQE5igjnQOYNGrdu3evUZeePXuye/fuhvzZRJqN7p67zIMPPsg///lPli5dyhlnnMHvf/977rvvPlasWMH111/Pb37zG/bs2RMIOkVFRfTt2zeQbOLBBx8ETAq5zz//nPvvv5/s7OwGTxFE2t/cuXMpLi6ukRU90jlYlqU0apLQ1NOMg4amhisvL2fLli38x3/8B1lZWbRu3ZopU6ZQXFzMl19+yemnn86AAQN45ZVXAPNB840bNzJ06NAa+/J4PPTo0YNbbrmFt99+u9HnFO3+6jsHkUSnnmYcNDQ1nD9bz+jRo2uUlZaW0q1bN2644QYKCwuZOnUqO3fu5PDhwyHPlW/evJmnnnoqkIMTqDPxRjRi3V8056A0apLIFDRdpGPHjliWxbp16/jhD39Y6zqXXnoprVq14p133mHLli0MHDgwkNvx73//OwsWLOD+++/n4osvJi0tjbVr1/L666/XecxIKeSi2V942rVozkFp1CSRaXjuIpmZmQwYMICFCxcG0qp9/PHH3HfffZw4cQIw6deGDBnC2rVrefPNN0OG5sePH8e2bX7wgx9w6qmnsnv3btasWRPxmJFSyEWzv/C0a9Gcg9KoSSJT0HSZ/Px8unTpwqxZsxgxYgQPP/wwubm5nHrqqYF1cnNz2bFjB1lZWZx33nmB5R07dmTy5MksWLCAoUOHsnz58nqDUKQUctHsr7a0a/Wdg9KoSSJTarj6KTVcHDRlGrVkpNRw7qWgWT8FTWl2CprupeG5iEgMFDRFRGKgoJnkDh48SE5ODocOHYrrcZTqTVoKBU1pEkr1Ji2FgmacJVpqOKV6E4lMQVMaTanepCVR0HSZ+lK1TZw4kVWrVnH33XczbNgwJk2axK5duwLrV1RUkJ+fz7Bhw7jjjjt48803Q/avVG8ijaNnzxPQ+vXrKSgooGfPnvzpT39i9uzZrF69mvT0dAoKCkhPT2f16tUcOXKEgoKCkG2V6k2kcdTTjIOGpoaL1s0330zfvn1p3bo148ePJyMjg7feeouSkhJ27txJXl4e6enpZGdnM2nSpFr3oVRvIg2jnmYcNDQ1XLSysrJqvC4vL6e8vJzTTjstpNeXnZ0dsq5SvYk0joKmy0RK1ebnD2TBrwcMGEBGRgbHjh2jsrIyEDiD11WqN5HG0/DcZSKlavNbv349O3bs4MiRIzz77LOUl5dz1VVXkZ2dTZ8+fVi2bBmVlZV4vV5WrlwZ2E6p3kQaT0HTZSKlavO76aabWLVqFaNHj+bVV1/lwQcfDPQs582bx9GjR5kwYQL5+fkMGTIksJ1SvYk0nrIc1c9VWY4mTpzIuHHjGDRokNNVCaFUb01LWY7cS3Oa0iQuuuiiQMAE8wkCkWSk4bmISAzU00wwq1atcroKIi2aepoiIjFQ0BQRiYGCpohIDBQ0W5Cysu+crkLctYRzFGfpRlCU5s+f73QVGqWiIouUlBOkpyd31qHKygy+/74V7dsXO10VSVIKmvX7Bngukb/vJj39hn9NS+vYo7Lyz28fPfqRt/4tElda2vlZ6emDBhQX//2zyspXdjhdn0b6xukKSE16Iii5WVlZeUvBvhvAtq0+paVLPnK6UvHUocPdfTwez199L1d6velTYX61o5WSpKI5zaQ135OVNXMl2FPAegygqur4V07XKt6qq7/fa36zHgPuyMqqXAHz1c6lyagxJaUxKdnZlY8BP7Esa6xlVW8HysvLlx92umbx5jvHA7Ztf2jbjAD7tqysyv+F+ZqKkiahoJl0xqRkZXX6nW0zzrKsm0pKlvwJOAfY62y9mtVej4dzSkuXvmLb1g3ATdnZlath0qlOV0wSn4JmUpl0alZW52eBUZZl3VxSsuT/AGzbc45l0WK+m8KyrC9tm3MASkuXbgZ7mG1zQ8eOrdd27z4j1dnaSaJT0EwS558/v1VWVus/gp1r254bS0qWvHqy1O5aXd2yeppgdfW/8HqXvWlZ3GBZXPvdd57nzzln/mkO1k0SnIJmEujefUZqRUXlGssix+NhUGnpr8OTf54DVtLfBPKrrra/Avuc4GUlJUvfhuqBYF1+/PjfX+jcOS/NoepJglPQTHDZ2ZNaf/ddygbL4prqamtwcfHSd4LL27efdTrQFuwWMzyH6i+Bdr5zD/B6H95mWZ7rwepXVWW/kpExrY1DFZQEpqCZwDIyprWx7davAJd4PJ7rSkuXvBe+zmmnHe8KYFktZ3huWZ4v4eS5Bysp+fWHHo/neuCCU05p9ZICp8RKQTOBeTynnm/bpAPp1dXV93bokHdB+DrV1ZwD2JZ1pMUMz33navvOPUSHDnkXVFdX3wuk2zbpHs+p5zd7BSWhKWgmsLKyZVtLS5f2tSxrBFhdPR57R3Z23oasrLsD32Zm256uwP6SkpVHHKxqs/KdazmcDJodOtzdJytr5h88HvtD4Dzbtu8sLS2+uKxs2da69iNSGz1GmTysrKyZ9wC/AlpblvWSbVfNB2uCZXFFScmyKxyuX7PKzp75rm3zdnV19e88Hs8sYAJwzLbtRaWlZ/5Kj1ZKQ6mnmTxs4DrgE6geZdt2Z/C8b1nWv1VXt5w7537V1ey1LO7yeDw7gQssi1HAR5ZlXaSAKY2hoJkkOnWa2Re42bKs+V7vwy94vUsvtixrpG3bX1hWS7pzbliW/aU5d2uk17v04pKSpessy/4VMDwrK6+f0/UTEYdlZc18ISvrnr9Qc8rFys7+eXsn6uQk3znXmH7Kypr5XlbWPc87UCVJEprTTAKdOs3sW13NXyzLHlFSsmy90/Vxs+zsvOG2bb8A1Zd6vQ9vc7o+kng0PE8C1dX2XLC3l5Qs2+B0XdzOl8BkG3j+0+m6SGJS0ExwHTrc3Qes4ZbluR9zM0jqYVkUAiM7dfrZvzpdF0k8CpoJzuPx3A/sLClZomF5lEpKlv4J2FZdbd/ndF0k8ShoJrCOHfPOB0ZYFuplxsYG6wGwb1FvU2KloJnAfMFyp6/nJDHwepesA+svvkcqRaKmoJmgTC/THglWAeplNoQN9gPAqM6d77nQ6cpI4lDQTFCWZc8Hdnu9Z6iX2UBe79IXgJ3V1R71NiVqCpoJyDeXeQswT48ENooN9gLbtkertynRUtBMQL5e5t+83vR1Ttcl0Xm9y55HvU2JgYJmgjnZy7TVy2watm3zK/U2JVoKmgnG42Ee8Dev98wXnK5LsigtXbrWtvlrdbX1S6frIu6noJlAOnac0du27VG2zXz1MpuUDfavbJvRtWW/FwmmoJlAPJ6UecDfSkvTlaWniZWWLnvOttllWbZ6mxKRgmaCML1MRtu2fb96mXFhg1VoWYxRb1MiUdBMGClzwfq4tPTMtU7XJFmVli5ZY1l8ZFnVyoAkdVLQTABZWTN7WRZjbBv1MuPLBrvQsqyxJnuUSE0KmgnAtm1fL/OM55yuS7IrKTlzjWXxkcejfJtSOwVNlzO9TGusZVUXqJfZHOZXmwxIjFNvU2qjoOl+9wGflJScucbpirQUJSVn/BHY7fFY+U7XRdxHQdPFOne+uwcw1rIs9TKb1fxqy+IBsMZlZ//8PKdrI+6ioOliVVXWfOBTX89HmlFJSfqzwN9su0rPpEsIBU2XMr1Ma6xlsUC9TCfMr7Ys60Hgx+ptSjAFTZeqqvLMA74sKSlWL9MhJSX7ngX7M9uu1lNCEqCg6UK+ucxxlmXNhzVVTten5VpTBdavwB6fnX3PvzhdG3EHBU0XqqpKmQt8aXo64iSvt/gZ09tUBiQxFDRdpnPnvO5g/xi4X71MN1hTBRQCt6q3KaCg6TpVVfZc4EuvN129TJfwekueBvbYtqWnhERB001ML5PxYBfA/O+dro/4BXqbE9TbFAVNF6mqsu+zbfZ6vWc+43RdJJTXW/wUsAf0lFBLp6DpEpmZM84FbrUs1Mt0pTVVtm0/YNvc1qnTz3o6XRtxjoKmS5xySoqvl5n+tNN1kdqVlpasBvbYdrV6my3YKbUs6wxc2dwVaclSU8/tYNv2bceOffw/sPGWZjpsvD40n8TtZw1HjuS+1rr1eVPS0v5l+9Gjn3idrpHE3TfAO/WtNBaw9dN8P5Z1it269QU2eJrzuPGS5O3HY7dufYFtWae4oC76aYafGtnFautp+lkRyqQJ2fb3HDny1+Y63FigOT7OlKTtp7o5/6/EWbWmY9ScpohIDBQ0RURioKApIhIDBU1ndMRMMrd3uiIiEhsFTRGJp3eBiU5Xoim5LWgWUfOWf5GjNTrpXkx9fuJ0RaRObm0//YE/AQeAI8BOYDaQ5mSl4uAD4I6wZZcDq5q/KvHjtqAJsAzzcRX/T66z1QHM3+ku4DFgssN1kcjc1n5ygTeBzzAf+m8P3AqcAdzkYL2kgdwYNOuyD7g+6HVnTE8iHdMwa/tg6vX1lE0Bwj901wP4Hjg7aNkQ4CAwDegKhH8f9nZgAfA68C3wCTA4qDwLeNFXthsYFcN5S9Nwov1YwG+Ax4FfAJ9iepq7gP/k5FNZmcBTwH6gDPg90DZon9uBXwNbgMOYNnQZ8HPfeR0CVhJ6PW8HHvBt8y3wF2BAUPmLvvOoBr7EjKSssO0Lgc3AP4Af17PNM8AlwO9867zrWx4+PI/mXCNdS67kf6LDCUXA0jrKIjX6cHOBbUCbesraYBpccGNaDLwSts064Dbf778EHg4r3w58hRmGtfatU8bJBvUm8BymwZwLvI9zN4Li/f+r9nOy/fT2HePyeuq9GXgJyAbOwgSMl4LKt2OC1CW+Yz6OCSgrMQGnB+AFxoRtcxC4DvghZjrgEJARduwU4CJMT/jWsO29mN5xSpTb1DY8Dw+a0ZxrpGupOa2hjg+4h3O60Ye/o4/wlUXb6G8HvsDcoQ5XW9mjwJO+31Mx807Bz39nA18Dp/petwOKCZ2P2g78LOj1mb66dcIESRsTMP1+hIJmPLit/VzrO8ZZEerczbfOOUHL+viWZflebwfygsqvw/T2fhC07H+BB4Ne+3uawXYDk+qox92Y3mLw9vV9xUf4NvUFzWjPta5rqbnVGjTdODwPn5NaF8O2g4FFwFCgNMqy5cBoTDAcgxlabQgqvwvT6P+J+c87gAmk48L2vz/o96O+f9MwF+d3YeWfx3BOEhs3tZ9y37+RLvizfNvsDVq2J6jMrzzo92OYYf53YcvCbyx9Ucvrzr7fx2CG7Icx7XpZUJnf12Gvo9kmkmjPta5ryRXcGDTrcpTQP1xmWHlfzLvtKODjGMp2A1sx75BTgCeAE74yD+Zd8nxCL8RB1P2OHW4fpkcQXN9uUW4rTceJ9vM3TIC4jbp9g8kB0SVoWfegssboGva6G6Y9dgCeBgowPTwPpicbnosieMQQzTbV9dQnnufabBIpaG4H7sQMp87GvOv7nY2ZpJ4KvB22XaQyv+XALMz8TfDHI/x3XneHrf8mcIHvpz6f+477KGY+qRuhwyhpHk60H9u33V3AQszcY2vMm3AhZirjC0x7+m9MMDoLM2f+CmZOsTGmYKYITsfciOoMvIB58/Bg5jj/iZlzzatjH37RbOMFLqTuREDxPNdmk0hBczZmDrAY04ifDyobiRkCPUfNO5yRyvxewLxLbuLkcAHMx4vCbwqBaTSvE/3Hj8ZhJvA/99X9D1FuJ03HifYDZp71WsxNoXcx0ztPY4KPfxg/DjPk3Ym5yVRM03weeCUmOJcAE4BhmGH+XkyQfxpzQ+nXhP49ahPNNg8BN2B69e9Su3idq6OcnMh3SipQgflYRbJL5htBTnFj+9lO5GkBqV/C3Ahqbhbw75h3x7UO10USj9pPCxMpCXFLcQSoBP6NkxP4ItFS+2lhFP+ibgsAAA3QSURBVDRd9FEGSUhubT99na5AstLwXEQkBgqaIiIxUNAUEYmBgqaISAwUNEVEYhDp7nlL+4CyNC21H0kGz4UviBQ0w7P4SHK4ApjZDMdR+5FEV+vz+JGC5h8jlElia46gqfYjiW5MbQs1pykiEgMFTRGRGChoiojEQEFTRCQGCpoiIjFQ0BQRiYGCpohIDBQ0RURioKApIhIDBU0RkRgoaIqIxEBBU0QkBgqaIiIxUNAUEYmBgqaISAwUNEVEYqCgKSISAwVNEZEYKGiKiMRAQVNEJAYKmiIiMVDQFBGJQaSv8F3TbLWQ5tS5mY6j9iOJ7nLg3fCF6mmKiMQgUk+z1i9Kl4Q3Fni2GY6j9iOJrtbRknqaIiIxUNAUEYmBgqaISAwUNJtPR8AG2gctyyH07tzLwOjmrJRIgnD1tTIWc3FL06otaL4LDA96fTXwCWDFsR7x/v9V+5F3gYlx2GdzXytrqOVmUDx6mh2B72NYvwhzkQX/FMWhXg1xL6Y+P4nDvi8CumPeMf22AK2A6+NwvESRLO2nP/An4ABwBNgJzAbSnKxUHHwA3BG27HJgVRMew1XXiluG58sw7xj+n1xnqwOYv81dwGPA5Djs/xbgNeBE2PL/85VJ9NzWfnKBN4HPgCsxo4tbgTOAmxysV6Jy1bXilqBZl32EvpN0xvQk0jENM7yHYfvWj1Q2Bfhr2HF6YHo3ZwctGwIcBKYBXYE+YdtsBxYArwPfYoYKg4PKs4AXfWW7gVFh21/u20e4v/jKpPGcaD8W8BvgceAXwKeYnuYu4D+BP/q2yQSeAvYDZcDvgbZB+9wO/BrTozqMaUOXAT/3ndchYCWh1/B24AHfNt9i2tKAoPIXfedRDXyJGUlZYdsXApuBfwA/rmebZ4BLgN/51vHPOYYPz6M510jXkuuvlcbOSTVkeLW0jrJIjT7cXGAb0KaesjaYBhfcmBYDr4Rtsw64zff7L4GHw8q3A19hhmGtfeuUcbJBvQk8h2kw5wLvEzqnuZva531G+vYTL26f00z09tPbd4z6LubNwEtANnAWJmC8FFS+HROkLvEd83FMQFmJCTg9AC+hDxFsx7zRXwf8EDMdcAjICDt2CmbI+xmmBxy8vRfTO06JcpvahufhQTOac410LTl1rdQ6p1mbhjT6J6j9ndn/86sI29Y2JzXCVxZto78d+AJzwYWrrexR4Enf76mYeafgbn428DVwqu91O6CY0Pmo7cDPgl6f6atbJ0yQtDEB0+9HKGjW5QmSp/1c6zvGWRHq3M23zjlBy/r4lmX5Xm8H8oLKr8P09n4QtOx/gQeDXvt7msF2A5PqqMfdmN5i8Pa/jFDv2rapL2hGe651XUvgsqDZVMPzOzg5n5QFVBE6x3RvPduHz0mti+HYg4FFwFCgNMqy5ZiPK7TDvFN/D2wIKr8L0+j/ifnPO4AJpOPC9r8/6Pejvn/TMBfnd2Hln4dtW0LNHgCYQFtSy/JkdgfJ037Kff92om5n+bbZG7RsT1CZX3nQ78cww/zvwpaF31j6opbX/iQtYzBD2sOYdr2Mmglcvg57Hc02kUR7rnVdS+Cya8Xtc5pHCW0UmWHlfTHvtqOAj2Mo2w1sxVysUzA9Hf8kswfzrnY+oRfiIOp+xw63D9MjCK5vt7B13vXVMdzFvrpJ4znRfv6GCRC3UbdvMHkfugQt6x5U1hhdw153w7THDsDTQAHmjcmD6cmG558IHiVEs011PfVpinN11bXi9qC5HbgTM5w6G/Ou73c2ZpJ6KvB22HaRyvyWA7Mw8zfBH4/w33ndHbb+m8AFvp/6fO477qOYd8huhA6jAF4ABlKz0Q4Cno/iGFI/J9qP7dvuLmAhZu6xNeZNuBAzffEFpj39NyYYnYWZM38FM6fYGFMwUwSnY25Edca0tTTM9X4IM4K6nNDhf22i2cYLXEjdyX+a4lxdda24PWjOxswBFmMacfAfaCRmCPQcNe9wRirzewHzLrmJk8MFMB8vCr8pBKbRvE70Hz8ah5nA/9xX9z+ElW/zlQ0NWnYVZijzapTHkMicaD9g5lmvxdwUehczvfM0Jvj4h/HjMEPenZi2UEzTfB54JSY4lwATgGGYYf5eTJB/GnND6dfUH3Ci2eYh4AZMr75G7kmfxp6r66+VlvJERypQgflYhVMGEtrQXiL+KdXceCMoEbmh/YTbTuRpgUTmxLVS642gSPk0k5kF/Dvm3XGtg/V4ndCPpgxzqiISE7e0n5bENddKSw2aR4BK4N+o+ZSBSH3Uflqwlho0k+35X2lebm0/td1hlibm9htBLZXSyIk0XLNfKy1lIt/N4plGTjeCxE3cnEbOtanhYuHWNGCgNHJNpSW2H6WRazpxv1YScXjutjRgoDRyicRt7Udp5JpW3K+VRAyadVEaOWkMpZFTGrkGa+7UXvUJTlHltjRgfomURs7tc5otqf0ojZy708i5NjXcuZhHsw5i/uMLgX/BJLz4KTAnaF23pQGDxEsj58ag+QQts/0ojZy708i5NjXcrZgu+DmYBtwG8zzvXuAazAUVzE1pwEBp5JrCHbTM9qM0cqESIo2cG+Y0F2DuHH4L7ADuwQSdDOD/UbNx1kVp5FqmRG4/SiMXKiHSyLkhaDYVpZGTxlAaOaWRi0oyBU2lkZPGUBo5pZFrMD3RUZMb0oA1VWosN94ISnZuaD/hlEaufkoN10BuSQPmmtRYEhO3tJ+WJK7XioJm/ZQGTBpD7SfJJNOcZl0amxAgDTMpXdvcZSyUpSgxJWv78d/xlxi1hKDpFg8Self8QcwkfKyZV6RlUvtxiUTLcuQGtT3VUJ+WlKWosdR+alL7cRH1NJuHshRJY6j9uIgbgmYbzONWX2EmzF/kZAah6cCHYet3xTxmd47vdX3ZWMLV94xxQzK1RDoHUJaieFL7kWblhqD5B8yTENdhHp/6GPNhYA+wGuhF6GNRd2Ayoez1vb4R0yhPxbzr3g6Mb0R9Iu3vx5gPz97pW8ffYCOdA5gPPwc/G+y3H/PInzSc2o80q6YKmk9w8kkILyY1VDRZajpjnqiYiHlX/hbzVMG5mEfJ/o55rvhO3/oWphE+Xsu+qjC9ikeAmxt5PrHsr75zkPo9gdqP2k+CcDrLkT9hQDEnL5AqTH6/c3xlv8M84tUK80n/dEIfz2psZpVwse4vmnNI9ixFjXUHaj9qPwnC6eH5V5i5n/aEXiQWJ5+7/T9MWqsbMRfXM5xMBxVtNpZgkbLZNCRTSzTnoCxF8aH2o/bT7JwOml8D6zHDs56YDC+XYuZzUn3rVGPmfO7GzBEFD60ako0lUjabhmRqieYclKUoPtR+1H5cobm/ruB04L8wmUkOU/PrN8FMktuY704J9wtMzsTjwDvAEkKfnAh/oqMbJv3Ud5jvb5lK6N3P+vY3AJMH8UTQ8mjO4V1C57auwnwnTHO/cbk9YYfaj7vbT0sS16+7kPo1VeaVxnJ70JTauaX9tCTKcuQwZSmSxlD7cQl17UVEYqCgKSISg2QMmh0J/frbeFGqt+Sk9iMRJWPQbC5K1SWNofaToJQaTqm63EbtR1xNPc2GUaouaQy1nwTmhqBZX6qt7cADmHfibzHP9Q4IWj8Lk0rrW8z3j48K279SdSU3tR9pVm4ImtGYAtyHuSCexQxr/AkMnsU8W9wduImaQyWl6hK1H2kyTqeGi9b/YHIgfot51rcYk07rXOBqYBqmwX0OzKljH0rV5V5PoPYjCcLp1HDR+qKW1519P99hGrzf52HrKlWX+92B2g+o/SQENwzPI6Xa8usa9robZi5rH/CDsG26Bf2uVF3JT+1HmpUbgmakVFt+U4BrMdlgfoF5p38B0yt4G3gU887djdDPvilVV/JT+xHHNXdqr/pSbW3HNOS3gH9g5pWuDtq+E2Zi33/3898JfaJDqbpCuT3LkdqPuEXCpobbDtzmdCVqkaiputweNJua2o80lFLDNTGl6pLGUPtJUBoKiIjEIBF6mrXdZRSJltqPNCn1NGuntF3SGGo/LYzbJvKdEH6382rgE5IjbVdLuxHkhGRuPy1JrTeClBquJqXtcpbaj7iahuc1KW2XNIbaT5JzQ9CsL3VXpNRc/u0LMQkZ/oHJPHO3b93vfPu9OGh9pe1KLmo/4rjmfqJjO3AQk0brh8BszGNr4QkNUjBDn8+AW8O29wJX+tbpiXnkbQBwGqah/lfQ+s9jhk5dfcdbjGnQ/jeQ3ZgMNeFGAmUxnJdbuX1OU+1H3CKuTwQ9QWgqr/CfSKm9/D2FYLuBSXWsfzcm+Wvw9r8Met0V8+jaBbVs609QG5yz0P9ssX/9ZG/0bgyaT6D2I+4T1xtBd9C41F51pe6C6FJzfR30+5eYJLH/hfn+lseBf/WVKW2XO92B2o8kCDfMaULdqbuiSc0FNXs2G4BcoD/mcbU3MdlmlLYrOan9SLNxS9CsK3VXNKm5wg3CDNe6Y76iICVoP0rblZzUfsRRTkzkR0rdVV9qrvAsNq0wXy/wGXDEVz4iqLylp+1y45xmMLUfcQvXpoZzY+quZE7b5fagGSu1H4kXpYaLgdJ2SWOo/SQxDRdERGLghp6mUndJY6j9SLNST1NEJAYKmiIiMVDQFBGJgYKmiEgMIt0IiupDnZJwwp+7jhe1H0l0lxP6eVvAPCIW7ofAGXGvjjjlW0wmnngFNbUfSRb7ME+RveN0RURERERERERERERERKQZ/H8ZzORv6ugdCwAAAABJRU5ErkJggg==;" vertex="1" parent="1">
                    <mxGeometry x="430" y="760" width="333" height="316" as="geometry"/>
                </mxCell>
            </root>
        </mxGraphModel>
    </diagram>
</mxfile>